<svg width="58" height="44" viewBox="0 0 58 44" fill="none" xmlns="http://www.w3.org/2000/svg">
<path d="M48.9386 4.04343C45.2875 2.38475 41.374 1.15877 37.2815 0.461644C37.2451 0.454595 37.2073 0.459137 37.1736 0.474642C37.1398 0.490147 37.1116 0.515847 37.093 0.548183C36.5919 1.43522 36.0335 2.59148 35.6421 3.50496C31.3017 2.85167 26.889 2.85167 22.5485 3.50496C22.1126 2.49259 21.6211 1.50547 21.0762 0.548183C21.0577 0.515449 21.0298 0.489167 20.9961 0.472846C20.9624 0.456524 20.9246 0.450939 20.8877 0.456836C16.7976 1.15396 12.884 2.37994 9.23063 4.04102C9.1992 4.05431 9.17255 4.07695 9.15427 4.10593C1.72812 15.1037 -0.307389 25.8298 0.692468 36.4213C0.69525 36.4473 0.703244 36.4724 0.715961 36.4951C0.728679 36.5178 0.745854 36.5377 0.766443 36.5535C5.10089 39.7325 9.93539 42.1541 15.0675 43.7171C15.1033 43.7282 15.1415 43.7282 15.1773 43.717C15.2131 43.7059 15.2447 43.6841 15.268 43.6546C16.3723 42.1668 17.3509 40.5883 18.1936 38.9358C18.2052 38.9132 18.212 38.8883 18.2133 38.8629C18.2146 38.8374 18.2105 38.812 18.2013 38.7883C18.192 38.7646 18.1778 38.7432 18.1595 38.7255C18.1413 38.7078 18.1196 38.6943 18.0957 38.6858C16.5542 38.101 15.0606 37.3953 13.6286 36.5752C13.6028 36.5604 13.5812 36.5394 13.5655 36.5141C13.5498 36.4887 13.5406 36.4599 13.5387 36.4301C13.5368 36.4003 13.5423 36.3705 13.5546 36.3434C13.567 36.3163 13.5858 36.2927 13.6095 36.2747C13.9102 36.0511 14.2108 35.8179 14.4972 35.5848C14.523 35.5638 14.554 35.5505 14.5869 35.5462C14.6197 35.542 14.6531 35.547 14.6833 35.5607C24.0543 39.8012 34.2032 39.8012 43.4644 35.5607C43.4947 35.5462 43.5284 35.5405 43.5618 35.5443C43.5951 35.5481 43.6267 35.5613 43.6529 35.5824C43.9393 35.8179 44.2376 36.0511 44.5406 36.2747C44.5645 36.2923 44.5837 36.3156 44.5964 36.3425C44.6092 36.3694 44.6151 36.399 44.6137 36.4288C44.6123 36.4586 44.6035 36.4875 44.5883 36.5131C44.573 36.5386 44.5518 36.5599 44.5263 36.5752C43.0993 37.4021 41.615 38.1016 40.0568 38.6834C40.0329 38.6921 40.0111 38.7059 39.9928 38.7238C39.9746 38.7417 39.9604 38.7634 39.9511 38.7873C39.9419 38.8112 39.9378 38.8368 39.9391 38.8624C39.9405 38.888 39.9472 38.913 39.9589 38.9358C40.818 40.5872 41.8012 42.1594 42.8822 43.6522C42.9046 43.6828 42.9359 43.7057 42.9718 43.7178C43.0077 43.7298 43.0464 43.7304 43.0826 43.7195C48.2235 42.1609 53.0659 39.7381 57.4051 36.5535C57.4263 36.5386 57.4441 36.5193 57.4573 36.4969C57.4704 36.4746 57.4787 36.4496 57.4815 36.4237C58.6747 24.1783 55.4818 13.5388 49.0125 4.11074C48.9967 4.0801 48.9704 4.05621 48.9386 4.04343ZM19.5943 29.9717C16.7737 29.9717 14.4471 27.402 14.4471 24.2505C14.4471 21.0966 16.7284 18.5292 19.5943 18.5292C22.4817 18.5292 24.7869 21.1182 24.7415 24.2505C24.7415 27.4044 22.4602 29.9717 19.5943 29.9717ZM38.625 29.9717C35.802 29.9717 33.4778 27.402 33.4778 24.2505C33.4778 21.0966 35.7567 18.5292 38.625 18.5292C41.5124 18.5292 43.8176 21.1182 43.7722 24.2505C43.7722 27.4044 41.5148 29.9717 38.625 29.9717Z" fill="url(#paint0_linear_99_1999)"/>
<defs>
<linearGradient id="paint0_linear_99_1999" x1="1.50715" y1="1.27994" x2="62.0428" y2="29.4645" gradientUnits="userSpaceOnUse">
<stop stop-color="#FF06C8"/>
<stop offset="1" stop-color="#5DDEFF"/>
</linearGradient>
</defs>
</svg>
