<svg width="57" height="57" viewBox="0 0 57 57" fill="none" xmlns="http://www.w3.org/2000/svg">
<path d="M28.4923 18.9956C23.2591 18.9956 18.9885 23.2663 18.9885 28.4995C18.9885 33.7327 23.2591 38.0033 28.4923 38.0033C33.7255 38.0033 37.9962 33.7327 37.9962 28.4995C37.9962 23.2663 33.7255 18.9956 28.4923 18.9956ZM56.9968 28.4995C56.9968 24.5639 57.0325 20.6639 56.8114 16.7355C56.5904 12.1725 55.5495 8.12283 52.2128 4.78614C48.869 1.44232 44.8264 0.408513 40.2635 0.187492C36.3279 -0.0335278 32.4279 0.00212068 28.4995 0.00212068C24.5639 0.00212068 20.6639 -0.0335278 16.7355 0.187492C12.1725 0.408513 8.12283 1.44945 4.78614 4.78614C1.44232 8.12996 0.408513 12.1725 0.187492 16.7355C-0.0335278 20.6711 0.00212068 24.571 0.00212068 28.4995C0.00212068 32.4279 -0.0335278 36.335 0.187492 40.2635C0.408513 44.8264 1.44945 48.8761 4.78614 52.2128C8.12996 55.5566 12.1725 56.5904 16.7355 56.8114C20.6711 57.0325 24.571 56.9968 28.4995 56.9968C32.4351 56.9968 36.335 57.0325 40.2635 56.8114C44.8264 56.5904 48.8761 55.5495 52.2128 52.2128C55.5566 48.869 56.5904 44.8264 56.8114 40.2635C57.0396 36.335 56.9968 32.4351 56.9968 28.4995ZM28.4923 43.1225C20.4001 43.1225 13.8694 36.5917 13.8694 28.4995C13.8694 20.4073 20.4001 13.8765 28.4923 13.8765C36.5845 13.8765 43.1153 20.4073 43.1153 28.4995C43.1153 36.5917 36.5845 43.1225 28.4923 43.1225ZM43.7142 16.6927C41.8248 16.6927 40.2991 15.167 40.2991 13.2776C40.2991 11.3882 41.8248 9.86247 43.7142 9.86247C45.6036 9.86247 47.1293 11.3882 47.1293 13.2776C47.1299 13.7262 47.042 14.1706 46.8705 14.5852C46.6991 14.9998 46.4476 15.3765 46.1303 15.6937C45.8131 16.0109 45.4364 16.2625 45.0218 16.4339C44.6072 16.6053 44.1629 16.6933 43.7142 16.6927Z" fill="url(#paint0_linear_99_2006)"/>
<defs>
<linearGradient id="paint0_linear_99_2006" x1="1.04706" y1="1.0872" x2="66.2815" y2="24.0355" gradientUnits="userSpaceOnUse">
<stop stop-color="#FF06C8"/>
<stop offset="1" stop-color="#5DDEFF"/>
</linearGradient>
</defs>
</svg>
