<svg width="34" height="42" viewBox="0 0 34 42" fill="none" xmlns="http://www.w3.org/2000/svg">
<path d="M17.0527 0L15.9375 0.9554C15.9375 0.9554 11.9595 4.2024 8.0223 8.925C4.0834 13.6459 0 19.8747 0 26.4027C0 31.1049 1.9261 35.0217 5.0473 37.6652C7.9747 40.1421 11.8932 41.4834 16.15 41.65C16.4356 41.6636 16.7144 41.7027 17 41.7027C17.2856 41.7027 17.5644 41.6636 17.85 41.65C22.1068 41.4834 26.0253 40.1421 28.9527 37.6652C32.0739 35.0217 34 31.1032 34 26.4027C34 20.5258 29.8962 14.4024 25.9777 9.5081C22.0609 4.6155 18.1696 1.0081 18.1696 1.0081L17.0527 0ZM16.949 4.7277C17.833 5.5641 20.1501 7.6636 23.324 11.6348C27.0538 16.303 30.6 22.253 30.6 26.4027C30.6 30.2005 29.1261 33.0837 26.7223 35.1152C26.1375 35.6082 25.5 36.0587 24.8098 36.4429C25.228 35.4399 25.5 34.3519 25.5 33.2027C25.5 22.5777 19.8152 16.0956 19.8152 16.0956L16.7348 12.6446L16.8402 17.2652C16.8402 17.2652 16.847 19.4293 16.575 21.5152C16.4356 22.5573 16.2435 23.5943 15.9902 24.1723C15.9171 24.3372 15.8848 24.3576 15.8304 24.4375C15.3709 24.2384 14.9559 23.9494 14.6098 23.5875C14.0386 23.0027 13.6527 22.4179 13.6527 22.4179L12.0054 19.8679L10.7304 22.6304C10.7304 22.6304 8.5 27.1796 8.5 33.2027C8.5 34.3519 8.772 35.4399 9.1902 36.4429C8.51199 36.0621 7.8716 35.6175 7.2777 35.1152C4.8739 33.0837 3.4 30.2022 3.4 26.4027C3.4 21.3758 6.9666 15.5584 10.6777 11.1027C13.8261 7.3304 16.0565 5.4842 16.9473 4.7277H16.949ZM19.8169 22.6304C20.978 25.1549 22.1 28.6807 22.1 33.2027C22.1 34.5553 21.5627 35.8525 20.6062 36.8089C19.6498 37.7654 18.3526 38.3027 17 38.3027C15.6474 38.3027 14.3502 37.7654 13.3938 36.8089C12.4373 35.8525 11.9 34.5553 11.9 33.2027C11.9 30.4929 12.4253 28.203 12.9098 26.5625C13.6731 27.2459 14.6098 27.9429 15.9902 27.9429C16.8011 27.9429 17.5712 27.5723 18.0625 27.0929C18.5555 26.6152 18.8326 26.0508 19.0723 25.5C19.4565 24.6024 19.6554 23.6062 19.8152 22.6304H19.8169Z" fill="#272E4F"/>
</svg>
