<svg width="58" height="48" viewBox="0 0 58 48" fill="none" xmlns="http://www.w3.org/2000/svg">
<path d="M57.5462 6.06821C55.44 7.00148 53.1774 7.63207 50.7989 7.9171C53.2531 6.44856 55.0892 4.13726 55.9646 1.41445C53.6588 2.78407 51.1352 3.74813 48.5035 4.26472C46.7338 2.37513 44.3897 1.12268 41.8352 0.701821C39.2807 0.28096 36.6587 0.715234 34.3764 1.93722C32.094 3.15921 30.2789 5.10054 29.2129 7.45981C28.1469 9.81908 27.8896 12.4643 28.481 14.9848C23.8088 14.7502 19.2381 13.5358 15.0656 11.4204C10.8931 9.30506 7.21205 6.33599 4.26129 2.7059C3.25235 4.44633 2.6722 6.46422 2.6722 8.61327C2.67108 10.5479 3.1475 12.4529 4.0592 14.1593C4.97089 15.8656 6.28968 17.3206 7.89853 18.395C6.03268 18.3356 4.208 17.8315 2.57635 16.9245V17.0758C2.57616 19.7892 3.51475 22.4191 5.23286 24.5193C6.95097 26.6194 9.34277 28.0605 12.0024 28.5979C10.2715 29.0664 8.45683 29.1354 6.69537 28.7997C7.44576 31.1345 8.90747 33.1761 10.8758 34.6388C12.8442 36.1015 15.2207 36.9121 17.6727 36.957C13.5104 40.2245 8.36993 41.997 3.0783 41.9892C2.14095 41.9894 1.20438 41.9347 0.273438 41.8252C5.64474 45.2788 11.8973 47.1116 18.2831 47.1045C39.8997 47.1045 51.717 29.2008 51.717 13.6731C51.717 13.1687 51.7044 12.6591 51.6817 12.1547C53.9803 10.4924 55.9644 8.43392 57.5411 6.07578L57.5462 6.06821Z" fill="url(#paint0_linear_99_2002)"/>
<defs>
<linearGradient id="paint0_linear_99_2002" x1="1.3255" y1="1.43352" x2="63.3664" y2="28.28" gradientUnits="userSpaceOnUse">
<stop stop-color="#FF06C8"/>
<stop offset="1" stop-color="#5DDEFF"/>
</linearGradient>
</defs>
</svg>
