<svg width="35" height="35" viewBox="0 0 35 35" fill="none" xmlns="http://www.w3.org/2000/svg">
<path fill-rule="evenodd" clip-rule="evenodd" d="M23.5422 1.64656H27.7527L28.8478 0.00796221H22.7494L21.177 1.97534H14.2116L12.6207 0L6.1246 0.0901736L7.24617 1.72877L11.8412 1.65452L13.4056 3.614H21.9566L23.5422 1.64656ZM1.64659 11.4465V7.24385L0.00530814 6.14882V12.2472L1.97537 13.8169V20.7664L0 22.3414L0.0875196 28.8401L1.72877 27.7186L1.65187 23.1235L3.61397 21.5592V13.0082L1.64659 11.4465ZM33.353 27.7531V23.5452L31.3829 21.9702V13.4192L33.345 11.8548L33.2708 7.2598L34.9094 6.13823L34.9995 12.637L33.0242 14.212V21.1801L34.9916 22.7497V28.8481L33.353 27.7531ZM11.4436 33.3424H7.23566L6.1406 34.981H12.239L13.8087 33.0136H20.7768L22.3517 34.9889L28.8505 34.8988L27.7263 33.2602L23.1339 33.337L21.5669 31.375H13.0159L11.4436 33.3424ZM9.65927 9.02535C9.51713 9.08433 9.38803 9.17077 9.27935 9.27972C9.1704 9.3884 9.08396 9.5175 9.02498 9.65964C8.966 9.80178 8.93564 9.95415 8.93564 10.108C8.93564 10.2619 8.966 10.4143 9.02498 10.5564C9.08396 10.6986 9.1704 10.8277 9.27935 10.9364L15.473 17.1277L9.27935 23.319C9.17058 23.4277 9.08429 23.5569 9.02542 23.699C8.96655 23.8411 8.93625 23.9934 8.93625 24.1473C8.93625 24.3011 8.96655 24.4534 9.02542 24.5956C9.08429 24.7377 9.17058 24.8668 9.27935 24.9756C9.38813 25.0844 9.51726 25.1707 9.65939 25.2295C9.80151 25.2884 9.95384 25.3187 10.1077 25.3187C10.2615 25.3187 10.4138 25.2884 10.556 25.2295C10.6981 25.1707 10.8272 25.0844 10.936 24.9756L17.1273 18.7819L23.3186 24.9756C23.4274 25.0844 23.5565 25.1707 23.6986 25.2295C23.8407 25.2884 23.9931 25.3187 24.1469 25.3187C24.3007 25.3187 24.4531 25.2884 24.5952 25.2295C24.7373 25.1707 24.8664 25.0844 24.9752 24.9756C25.084 24.8668 25.1703 24.7377 25.2292 24.5956C25.288 24.4534 25.3183 24.3011 25.3183 24.1473C25.3183 23.9934 25.288 23.8411 25.2292 23.699C25.1703 23.5569 25.084 23.4277 24.9752 23.319L18.7816 17.1277L24.9752 10.9364C25.084 10.8276 25.1703 10.6984 25.2292 10.5563C25.288 10.4142 25.3183 10.2619 25.3183 10.108C25.3183 9.95421 25.288 9.80188 25.2292 9.65976C25.1703 9.51763 25.084 9.3885 24.9752 9.27972C24.8664 9.17095 24.7373 9.08466 24.5952 9.02579C24.4531 8.96692 24.3007 8.93662 24.1469 8.93662C23.9931 8.93662 23.8407 8.96692 23.6986 9.02579C23.5565 9.08466 23.4274 9.17095 23.3186 9.27972L17.1273 15.4734L10.936 9.27972C10.8273 9.17077 10.6982 9.08433 10.5561 9.02535C10.4139 8.96637 10.2616 8.93601 10.1077 8.93601C9.95378 8.93601 9.80141 8.96637 9.65927 9.02535Z" fill="url(#paint0_linear_109_363)"/>
<defs>
<linearGradient id="paint0_linear_109_363" x1="0.642922" y1="0.66738" x2="40.6961" y2="14.7614" gradientUnits="userSpaceOnUse">
<stop stop-color="#FF06C8"/>
<stop offset="1" stop-color="#5DDEFF"/>
</linearGradient>
</defs>
</svg>
