<svg width="3050" height="1855" viewBox="0 0 3050 1855" fill="none" xmlns="http://www.w3.org/2000/svg">
<g filter="url(#filter0_d_220_234)">
<path fill-rule="evenodd" clip-rule="evenodd" d="M45.6656 148.471C45.6656 91.4041 91.9271 45.1426 148.994 45.1426H381.482V24.4771H148.994C80.5138 24.4771 25 79.9908 25 148.471V1145.59V1375.88C25 1410.9 39.8104 1444.29 65.7721 1467.79L378.235 1750.7C401.037 1771.34 430.697 1782.78 461.456 1782.78H669.078V1762.11H461.456C435.824 1762.11 411.106 1752.58 392.105 1735.38L79.6423 1452.47C58.0076 1432.88 45.6656 1405.06 45.6656 1375.88V1145.59V148.471ZM1338.99 45.1426H2547.3C2572.86 45.1426 2597.51 54.6185 2616.5 71.7389L2915.06 341C2936.78 360.593 2949.18 388.477 2949.18 417.732V565.227H2969.85V417.732C2969.85 382.626 2954.97 349.165 2928.9 325.654L2630.34 56.3926C2607.56 35.8481 2577.97 24.4771 2547.3 24.4771H1338.99V45.1426ZM2949.18 1390.13V1658.78C2949.18 1715.85 2902.92 1762.11 2845.85 1762.11H2608.2V1782.78H2845.85C2914.33 1782.78 2969.85 1727.26 2969.85 1658.78V1390.13H2949.18ZM3023.05 592.732L3025 589.337H3021.09H2894.55H2890.63L2892.58 592.734L2954.98 701.23H2894.55L2956.3 808.634H2894.55H2890.63L2892.58 812.031L2954.98 920.573H2894.55L2956.87 1028.93H2894.55H2890.63L2892.58 1032.33L2954.98 1140.82H2894.55L2956.3 1248.23H2894.55H2890.63L2892.58 1251.62L2955.92 1361.75L2957.89 1365.17L2959.85 1361.75L3023.05 1251.62L3025 1248.23H3021.09H2959.47L3021.09 1140.82H2960.79L3023.05 1032.32L3025 1028.93H3021.09H2958.9L3021.09 920.573H2960.78L3023.05 812.029L3025 808.634H3021.09H2959.47L3021.09 701.23H2960.79L3023.05 592.732ZM2898.47 593.87H3017.17L2957.88 697.178L2898.47 593.87ZM3017.17 813.168H2898.47L2957.88 916.519L3017.17 813.168ZM3017.17 1033.46H2898.47L2957.88 1136.77L3017.17 1033.46ZM3017.17 1252.76H2898.47L2957.88 1356.07L3017.17 1252.76ZM2415.81 1720.78H2414.71L2414.25 1721.78L2389.65 1775.13L2389.27 1775.95L2389.73 1776.73L2421.26 1829.37L2421.76 1830.21H2422.74H2458.76H2461.68L2460.27 1827.66L2432.29 1777.16L2457.55 1723.23L2458.7 1720.78H2455.99H2415.81ZM2393.16 1775.74L2416.91 1724.22H2453.28L2428.8 1776.5L2428.43 1777.29L2428.85 1778.06L2455.84 1826.77H2423.71L2393.16 1775.74ZM2481.49 1720.78H2482.59H2522.77H2525.48L2524.33 1723.23L2499.07 1777.16L2527.05 1827.66L2528.46 1830.21H2525.54H2489.52H2488.54L2488.04 1829.37L2456.51 1776.73L2456.05 1775.95L2456.43 1775.13L2481.03 1721.78L2481.49 1720.78ZM2483.69 1724.22L2459.94 1775.74L2490.49 1826.77H2522.62L2495.63 1778.06L2495.21 1777.29L2495.58 1776.5L2520.06 1724.22H2483.69ZM2553.58 1720.78H2552.48L2552.02 1721.78L2527.42 1775.13L2527.04 1775.95L2527.5 1776.73L2559.03 1829.37L2559.53 1830.21H2560.51H2596.53H2599.45L2598.04 1827.66L2570.06 1777.16L2595.32 1723.23L2596.47 1720.78H2593.76H2553.58ZM2530.93 1775.74L2554.68 1724.22H2591.05L2566.57 1776.5L2566.2 1777.29L2566.62 1778.06L2593.61 1826.77H2561.48L2530.93 1775.74ZM739.249 1751.44C726.087 1751.44 715.418 1762.11 715.418 1775.27C715.418 1788.43 726.087 1799.1 739.249 1799.1C752.41 1799.1 763.08 1788.43 763.08 1775.27C763.08 1762.11 752.41 1751.44 739.249 1751.44ZM712.289 1775.27C712.289 1760.38 724.359 1748.31 739.249 1748.31C754.138 1748.31 766.209 1760.38 766.209 1775.27C766.209 1790.16 754.138 1802.23 739.249 1802.23C724.359 1802.23 712.289 1790.16 712.289 1775.27ZM840.576 1775.27C840.576 1789.3 829.206 1800.67 815.181 1800.67C801.156 1800.67 789.786 1789.3 789.786 1775.27C789.786 1761.24 801.156 1749.87 815.181 1749.87C829.206 1749.87 840.576 1761.24 840.576 1775.27ZM891.077 1751.44C877.916 1751.44 867.246 1762.11 867.246 1775.27C867.246 1788.43 877.916 1799.1 891.077 1799.1C904.239 1799.1 914.908 1788.43 914.908 1775.27C914.908 1762.11 904.239 1751.44 891.077 1751.44ZM864.117 1775.27C864.117 1760.38 876.188 1748.31 891.077 1748.31C905.967 1748.31 918.037 1760.38 918.037 1775.27C918.037 1790.16 905.967 1802.23 891.077 1802.23C876.188 1802.23 864.117 1790.16 864.117 1775.27ZM992.399 1775.27C992.399 1789.3 981.03 1800.67 967.004 1800.67C952.979 1800.67 941.609 1789.3 941.609 1775.27C941.609 1761.24 952.979 1749.87 967.004 1749.87C981.03 1749.87 992.399 1761.24 992.399 1775.27ZM1042.94 1751.44C1029.77 1751.44 1019.11 1762.11 1019.11 1775.27C1019.11 1788.43 1029.77 1799.1 1042.94 1799.1C1056.1 1799.1 1066.77 1788.43 1066.77 1775.27C1066.77 1762.11 1056.1 1751.44 1042.94 1751.44ZM1015.98 1775.27C1015.98 1760.38 1028.05 1748.31 1042.94 1748.31C1057.83 1748.31 1069.9 1760.38 1069.9 1775.27C1069.9 1790.16 1057.83 1802.23 1042.94 1802.23C1028.05 1802.23 1015.98 1790.16 1015.98 1775.27ZM1144.23 1775.27C1144.23 1789.3 1132.86 1800.67 1118.83 1800.67C1104.81 1800.67 1093.44 1789.3 1093.44 1775.27C1093.44 1761.24 1104.81 1749.87 1118.83 1749.87C1132.86 1749.87 1144.23 1761.24 1144.23 1775.27ZM1194.77 1751.44C1181.61 1751.44 1170.94 1762.11 1170.94 1775.27C1170.94 1788.43 1181.61 1799.1 1194.77 1799.1C1207.93 1799.1 1218.6 1788.43 1218.6 1775.27C1218.6 1762.11 1207.93 1751.44 1194.77 1751.44ZM1167.81 1775.27C1167.81 1760.38 1179.88 1748.31 1194.77 1748.31C1209.66 1748.31 1221.73 1760.38 1221.73 1775.27C1221.73 1790.16 1209.66 1802.23 1194.77 1802.23C1179.88 1802.23 1167.81 1790.16 1167.81 1775.27ZM427.274 45.1426H410.758V24.4771H427.274V45.1426ZM493.342 45.1426H460.308V24.4771H493.342V45.1426ZM559.409 45.1426H526.375V24.4771H559.409V45.1426ZM625.476 45.1426H592.443V24.4771H625.476V45.1426ZM691.544 45.1426H658.51V24.4771H691.544V45.1426ZM757.611 45.1426H724.577V24.4771H757.611V45.1426ZM823.678 45.1426H790.645V24.4771H823.678V45.1426ZM889.746 45.1426H856.712V24.4771H889.746V45.1426ZM955.813 45.1426H922.779V24.4771H955.813V45.1426ZM1021.88 45.1426H988.846V24.4771H1021.88V45.1426ZM1087.95 45.1426H1054.91V24.4771H1087.95V45.1426ZM1137.5 45.1426H1120.98V24.4771H1137.5V45.1426ZM1240.83 1784.5H1258.32L1258.32 1763.83H1240.83V1784.5ZM1293.3 1784.5H1328.28L1328.28 1763.83H1293.3L1293.3 1784.5ZM1363.26 1784.5H1398.24L1398.24 1763.83H1363.26V1784.5ZM1433.22 1784.5H1468.2V1763.83H1433.22L1433.22 1784.5ZM1503.18 1784.5L1538.16 1784.5L1538.16 1763.83H1503.18L1503.18 1784.5ZM1573.14 1784.5H1608.13L1608.13 1763.83H1573.14L1573.14 1784.5ZM1643.11 1784.5H1678.09L1678.09 1763.83H1643.11L1643.11 1784.5ZM1713.07 1784.5H1748.05V1763.83H1713.07V1784.5ZM1783.03 1784.5H1818.01L1818.01 1763.83H1783.03L1783.03 1784.5ZM1852.99 1784.5H1887.97L1887.97 1763.83H1852.99L1852.99 1784.5ZM1922.95 1784.5H1957.93L1957.93 1763.83H1922.95L1922.95 1784.5ZM1992.91 1784.5H2027.9L2027.9 1763.83H1992.91L1992.91 1784.5ZM2062.88 1784.5H2097.86V1763.83H2062.88L2062.88 1784.5ZM2132.84 1784.5H2167.82V1763.83H2132.84L2132.84 1784.5ZM2202.8 1784.5H2237.78V1763.83H2202.8L2202.8 1784.5ZM2272.76 1784.5H2307.74L2307.74 1763.83H2272.76V1784.5ZM2342.72 1784.5H2360.21V1763.83L2342.72 1763.83V1784.5Z" fill="url(#paint0_linear_220_234)"/>
</g>
<defs>
<filter id="filter0_d_220_234" x="0.890135" y="0.367186" width="3048.22" height="1853.96" filterUnits="userSpaceOnUse" color-interpolation-filters="sRGB">
<feFlood flood-opacity="0" result="BackgroundImageFix"/>
<feColorMatrix in="SourceAlpha" type="matrix" values="0 0 0 0 0 0 0 0 0 0 0 0 0 0 0 0 0 0 127 0" result="hardAlpha"/>
<feOffset/>
<feGaussianBlur stdDeviation="12.0549"/>
<feComposite in2="hardAlpha" operator="out"/>
<feColorMatrix type="matrix" values="0 0 0 0 1 0 0 0 0 0.0235294 0 0 0 0 0.784314 0 0 0 1 0"/>
<feBlend mode="normal" in2="BackgroundImageFix" result="effect1_dropShadow_220_234"/>
<feBlend mode="normal" in="SourceGraphic" in2="effect1_dropShadow_220_234" result="shape"/>
</filter>
<linearGradient id="paint0_linear_220_234" x1="80.1083" y1="58.9197" x2="2956.07" y2="1739.72" gradientUnits="userSpaceOnUse">
<stop stop-color="#FF06C8"/>
<stop offset="1" stop-color="#5DDEFF"/>
</linearGradient>
</defs>
</svg>
