<svg width="1854" height="3049" viewBox="0 0 1854 3049" fill="none" xmlns="http://www.w3.org/2000/svg">
<g filter="url(#filter0_d_220_235)">
<path fill-rule="evenodd" clip-rule="evenodd" d="M148.126 3004.2C91.0599 3004.2 44.7984 2957.94 44.7984 2900.87L44.7984 2668.39L24.1328 2668.39L24.1328 2900.87C24.1328 2969.35 79.6465 3024.87 148.126 3024.87L1145.24 3024.87L1375.53 3024.87C1410.55 3024.87 1443.94 3010.06 1467.45 2984.1L1750.35 2671.63C1771 2648.83 1782.43 2619.17 1782.43 2588.41L1782.43 2380.79L1761.77 2380.79L1761.77 2588.41C1761.77 2614.04 1752.24 2638.76 1735.03 2657.76L1452.13 2970.23C1432.54 2991.86 1404.72 3004.2 1375.53 3004.2L1145.24 3004.2L148.126 3004.2ZM44.7984 1710.88L44.7983 502.572C44.7983 477.009 54.2742 452.354 71.3946 433.37L340.655 134.812C360.248 113.087 388.132 100.685 417.387 100.685L564.883 100.685L564.883 80.0198L417.387 80.0198C382.281 80.0198 348.821 94.9011 325.309 120.971L56.0482 419.53C35.5037 442.31 24.1327 471.896 24.1327 502.572L24.1328 1710.88L44.7984 1710.88ZM1389.78 100.685L1658.44 100.685C1715.5 100.685 1761.77 146.947 1761.77 204.013L1761.77 441.668L1782.43 441.668L1782.43 204.013C1782.43 135.534 1726.92 80.0197 1658.44 80.0197L1389.78 80.0197L1389.78 100.685ZM592.387 26.8154L588.992 24.8669L588.992 28.7815L588.992 155.319L588.992 159.237L592.389 157.284L700.885 94.8838L700.885 155.319L808.29 93.572L808.29 155.319L808.29 159.237L811.686 157.284L920.229 94.8833L920.229 155.319L1028.59 92.999L1028.59 155.319L1028.59 159.237L1031.98 157.284L1140.48 94.885L1140.48 155.319L1247.88 93.5707L1247.88 155.319L1247.88 159.237L1251.28 157.284L1361.4 93.947L1364.83 91.9799L1361.4 90.0158L1251.28 26.8154L1247.88 24.8669L1247.88 28.7814L1247.88 90.3967L1140.48 28.7814L1140.48 89.081L1031.98 26.8154L1028.59 24.8669L1028.59 28.7815L1028.59 90.9672L920.229 28.7815L920.229 89.083L811.685 26.8152L808.29 24.8676L808.29 28.7815L808.29 90.3955L700.885 28.7815L700.885 89.0822L592.387 26.8154ZM593.526 151.4L593.526 32.6963L696.833 91.9841L593.526 151.4ZM812.823 32.6953L812.823 151.401L916.175 91.9841L812.823 32.6953ZM1033.12 32.6962L1033.12 151.4L1136.43 91.9841L1033.12 32.6962ZM1252.42 32.6962L1252.42 151.4L1355.72 91.9841L1252.42 32.6962ZM1720.43 634.055L1720.43 635.157L1721.43 635.619L1774.78 660.22L1775.61 660.601L1776.39 660.134L1829.03 628.606L1829.87 628.105L1829.87 627.129L1829.87 591.108L1829.87 588.185L1827.31 589.602L1776.82 617.575L1722.89 592.317L1720.43 591.168L1720.43 593.876L1720.43 634.055ZM1775.4 656.712L1723.88 632.953L1723.88 596.584L1776.15 621.067L1776.95 621.44L1777.72 621.014L1826.42 594.031L1826.42 626.153L1775.4 656.712ZM1720.43 568.377L1720.43 567.275L1720.43 527.096L1720.43 524.388L1722.89 525.537L1776.82 550.796L1827.31 522.822L1829.87 521.405L1829.87 524.328L1829.87 560.349L1829.87 561.325L1829.03 561.827L1776.39 593.354L1775.61 593.821L1774.78 593.44L1721.43 568.839L1720.43 568.377ZM1723.88 566.173L1775.4 589.932L1826.42 559.373L1826.42 527.251L1777.72 554.234L1776.95 554.66L1776.15 554.288L1723.88 529.805L1723.88 566.173ZM1720.43 496.285L1720.43 497.387L1721.43 497.849L1774.78 522.45L1775.61 522.831L1776.39 522.363L1829.03 490.836L1829.87 490.335L1829.87 489.359L1829.87 453.338L1829.87 450.415L1827.31 451.831L1776.82 479.805L1722.89 454.546L1720.43 453.398L1720.43 456.106L1720.43 496.285ZM1775.4 518.941L1723.88 495.183L1723.88 458.814L1776.15 483.297L1776.95 483.67L1777.72 483.244L1826.42 456.261L1826.42 488.383L1775.4 518.941ZM1751.09 2310.62C1751.09 2323.78 1761.76 2334.45 1774.93 2334.45C1788.09 2334.45 1798.76 2323.78 1798.76 2310.62C1798.76 2297.46 1788.09 2286.79 1774.93 2286.79C1761.76 2286.79 1751.09 2297.46 1751.09 2310.62ZM1774.93 2337.58C1760.04 2337.58 1747.97 2325.51 1747.97 2310.62C1747.97 2295.73 1760.04 2283.66 1774.93 2283.66C1789.82 2283.66 1801.89 2295.73 1801.89 2310.62C1801.89 2325.51 1789.82 2337.58 1774.93 2337.58ZM1774.93 2209.29C1788.95 2209.29 1800.32 2220.66 1800.32 2234.69C1800.32 2248.71 1788.95 2260.08 1774.93 2260.08C1760.9 2260.08 1749.53 2248.71 1749.53 2234.69C1749.53 2220.66 1760.9 2209.29 1774.93 2209.29ZM1751.09 2158.79C1751.09 2171.95 1761.76 2182.62 1774.93 2182.62C1788.09 2182.62 1798.76 2171.95 1798.76 2158.79C1798.76 2145.63 1788.09 2134.96 1774.93 2134.96C1761.76 2134.96 1751.09 2145.63 1751.09 2158.79ZM1774.93 2185.75C1760.04 2185.75 1747.97 2173.68 1747.97 2158.79C1747.97 2143.9 1760.04 2131.83 1774.93 2131.83C1789.82 2131.83 1801.89 2143.9 1801.89 2158.79C1801.89 2173.68 1789.82 2185.75 1774.93 2185.75ZM1774.93 2057.47C1788.95 2057.47 1800.32 2068.84 1800.32 2082.86C1800.32 2096.89 1788.95 2108.26 1774.93 2108.26C1760.9 2108.26 1749.53 2096.89 1749.53 2082.86C1749.53 2068.84 1760.9 2057.47 1774.93 2057.47ZM1751.09 2006.93C1751.09 2020.09 1761.76 2030.76 1774.93 2030.76C1788.09 2030.76 1798.76 2020.09 1798.76 2006.93C1798.76 1993.77 1788.09 1983.1 1774.93 1983.1C1761.76 1983.1 1751.09 1993.77 1751.09 2006.93ZM1774.93 2033.89C1760.04 2033.89 1747.97 2021.82 1747.97 2006.93C1747.97 1992.04 1760.04 1979.97 1774.93 1979.97C1789.82 1979.97 1801.89 1992.04 1801.89 2006.93C1801.89 2021.82 1789.82 2033.89 1774.93 2033.89ZM1774.93 1905.64C1788.95 1905.64 1800.32 1917.01 1800.32 1931.03C1800.32 1945.06 1788.95 1956.43 1774.93 1956.43C1760.9 1956.43 1749.53 1945.06 1749.53 1931.03C1749.53 1917.01 1760.9 1905.64 1774.93 1905.64ZM1751.09 1855.1C1751.09 1868.26 1761.76 1878.93 1774.93 1878.93C1788.09 1878.93 1798.76 1868.26 1798.76 1855.1C1798.76 1841.94 1788.09 1831.27 1774.93 1831.27C1761.76 1831.27 1751.09 1841.94 1751.09 1855.1ZM1774.93 1882.06C1760.04 1882.06 1747.97 1869.99 1747.97 1855.1C1747.97 1840.21 1760.04 1828.14 1774.93 1828.14C1789.82 1828.14 1801.89 1840.21 1801.89 1855.1C1801.89 1869.99 1789.82 1882.06 1774.93 1882.06ZM44.7984 2622.59L44.7984 2639.11L24.1328 2639.11L24.1328 2622.59L44.7984 2622.59ZM44.7984 2556.53L44.7984 2589.56L24.1328 2589.56L24.1328 2556.53L44.7984 2556.53ZM44.7984 2490.46L44.7984 2523.49L24.1328 2523.49L24.1328 2490.46L44.7984 2490.46ZM44.7984 2424.39L44.7984 2457.42L24.1328 2457.42L24.1328 2424.39L44.7984 2424.39ZM44.7984 2358.32L44.7984 2391.36L24.1328 2391.36L24.1328 2358.32L44.7984 2358.32ZM44.7984 2292.26L44.7984 2325.29L24.1328 2325.29L24.1328 2292.26L44.7984 2292.26ZM44.7984 2226.19L44.7984 2259.22L24.1328 2259.22L24.1328 2226.19L44.7984 2226.19ZM44.7984 2160.12L44.7984 2193.16L24.1328 2193.16L24.1328 2160.12L44.7984 2160.12ZM44.7984 2094.05L44.7984 2127.09L24.1328 2127.09L24.1328 2094.05L44.7984 2094.05ZM44.7984 2027.99L44.7984 2061.02L24.1328 2061.02L24.1328 2027.99L44.7984 2027.99ZM44.7984 1961.92L44.7984 1994.95L24.1328 1994.95L24.1328 1961.92L44.7984 1961.92ZM44.7984 1912.37L44.7984 1928.89L24.1328 1928.89L24.1328 1912.37L44.7984 1912.37ZM1784.15 1809.04L1784.15 1791.55L1763.49 1791.55L1763.49 1809.04L1784.15 1809.04ZM1784.15 1756.57L1784.15 1721.59L1763.49 1721.59L1763.49 1756.57L1784.15 1756.57ZM1784.15 1686.61L1784.15 1651.63L1763.49 1651.63L1763.49 1686.61L1784.15 1686.61ZM1784.15 1616.65L1784.15 1581.67L1763.49 1581.67L1763.49 1616.65L1784.15 1616.65ZM1784.15 1546.68L1784.15 1511.7L1763.49 1511.7L1763.49 1546.68L1784.15 1546.68ZM1784.15 1476.72L1784.15 1441.74L1763.49 1441.74L1763.49 1476.72L1784.15 1476.72ZM1784.15 1406.76L1784.15 1371.78L1763.49 1371.78L1763.49 1406.76L1784.15 1406.76ZM1784.15 1336.8L1784.15 1301.82L1763.49 1301.82L1763.49 1336.8L1784.15 1336.8ZM1784.15 1266.84L1784.15 1231.86L1763.49 1231.86L1763.49 1266.84L1784.15 1266.84ZM1784.15 1196.88L1784.15 1161.9L1763.49 1161.9L1763.49 1196.88L1784.15 1196.88ZM1784.15 1126.91L1784.15 1091.93L1763.49 1091.93L1763.49 1126.91L1784.15 1126.91ZM1784.15 1056.95L1784.15 1021.97L1763.49 1021.97L1763.49 1056.95L1784.15 1056.95ZM1784.15 986.991L1784.15 952.01L1763.49 952.01L1763.49 986.991L1784.15 986.991ZM1784.15 917.03L1784.15 882.049L1763.49 882.049L1763.49 917.029L1784.15 917.03ZM1784.15 847.068L1784.15 812.087L1763.49 812.087L1763.49 847.068L1784.15 847.068ZM1784.15 777.106L1784.15 742.126L1763.49 742.125L1763.49 777.106L1784.15 777.106ZM1784.15 707.145L1784.15 689.654L1763.49 689.654L1763.49 707.145L1784.15 707.145Z" fill="url(#paint0_linear_220_235)"/>
</g>
<defs>
<filter id="filter0_d_220_235" x="0.0229473" y="0.756834" width="1853.95" height="3048.22" filterUnits="userSpaceOnUse" color-interpolation-filters="sRGB">
<feFlood flood-opacity="0" result="BackgroundImageFix"/>
<feColorMatrix in="SourceAlpha" type="matrix" values="0 0 0 0 0 0 0 0 0 0 0 0 0 0 0 0 0 0 127 0" result="hardAlpha"/>
<feOffset/>
<feGaussianBlur stdDeviation="12.0549"/>
<feComposite in2="hardAlpha" operator="out"/>
<feColorMatrix type="matrix" values="0 0 0 0 1 0 0 0 0 0.0235294 0 0 0 0 0.784314 0 0 0 1 0"/>
<feBlend mode="normal" in2="BackgroundImageFix" result="effect1_dropShadow_220_235"/>
<feBlend mode="normal" in="SourceGraphic" in2="effect1_dropShadow_220_235" result="shape"/>
</filter>
<linearGradient id="paint0_linear_220_235" x1="58.5755" y1="2969.76" x2="1739.38" y2="93.7965" gradientUnits="userSpaceOnUse">
<stop stop-color="#FF06C8"/>
<stop offset="1" stop-color="#5DDEFF"/>
</linearGradient>
</defs>
</svg>
