<svg width="934" height="1535" viewBox="0 0 934 1535" fill="none" xmlns="http://www.w3.org/2000/svg">
<g filter="url(#filter0_d_109_861)">
<path fill-rule="evenodd" clip-rule="evenodd" d="M75.3687 1511.61C46.6643 1511.61 23.3948 1488.34 23.3948 1459.63L23.3948 1342.69L13 1342.69L13 1459.63C13 1494.08 40.9234 1522 75.3687 1522L576.918 1522L692.754 1522C710.37 1522 727.164 1514.55 738.988 1501.49L881.289 1344.32C891.673 1332.85 897.424 1317.93 897.424 1302.46L897.424 1198.03L887.029 1198.03L887.029 1302.46C887.029 1315.36 882.237 1327.79 873.583 1337.35L731.282 1494.51C721.429 1505.4 707.434 1511.61 692.754 1511.61L576.918 1511.61L75.3687 1511.61ZM23.3948 861.064L23.3947 253.285C23.3947 240.427 28.1611 228.025 36.7727 218.477L172.211 68.3016C182.066 57.3741 196.092 51.1362 210.807 51.1362L284.997 51.1362L284.997 40.7414L210.807 40.7414C193.149 40.7414 176.318 48.2268 164.492 61.34L29.0534 211.515C18.7196 222.973 12.9999 237.855 12.9999 253.285L13 861.064L23.3948 861.064ZM699.923 51.1362L835.055 51.1362C863.76 51.1362 887.029 74.4058 887.029 103.11L887.029 222.65L897.424 222.65L897.424 103.11C897.424 68.6649 869.5 40.7414 835.055 40.7414L699.923 40.7414L699.923 51.1362ZM298.833 13.98L297.125 12.9999L297.125 14.9689L297.125 78.6171L297.125 80.5881L298.834 79.6055L353.407 48.2185L353.407 78.6172L407.434 47.5575L407.434 78.6172L407.434 80.5879L409.142 79.6057L463.737 48.2191L463.737 78.6172L518.239 47.2712L518.239 78.6172L518.239 80.5882L519.948 79.6056L574.523 48.2176L574.523 78.6172L628.548 47.5584L628.548 78.6172L628.548 80.5882L630.257 79.6056L685.649 47.7473L687.37 46.7578L685.648 45.7699L630.256 13.9801L628.548 13L628.548 14.969L628.548 45.961L574.523 14.969L574.523 45.3011L519.947 13.9801L518.239 13L518.239 14.969L518.239 46.2475L463.737 14.969L463.737 45.2997L409.141 13.98L407.434 13.0003L407.434 14.969L407.434 45.962L353.407 14.969L353.407 45.3L298.833 13.98ZM299.406 76.6459L299.406 16.938L351.37 46.7599L299.406 76.6459ZM409.714 16.9377L409.714 76.6463L461.7 46.7599L409.714 16.9377ZM520.52 16.9381L520.52 76.646L572.483 46.76L520.52 16.9381ZM630.828 16.9381L630.828 76.646L682.792 46.76L630.828 16.9381ZM866.24 319.421L866.24 319.976L866.744 320.208L893.578 332.582L893.993 332.774L894.386 332.539L920.864 316.681L921.285 316.428L921.285 315.937L921.285 297.819L921.285 296.349L919.999 297.061L894.601 311.132L867.474 298.427L866.24 297.849L866.24 299.211L866.24 319.421ZM893.888 330.818L867.973 318.867L867.973 300.574L894.266 312.888L894.667 313.076L895.054 312.862L919.553 299.289L919.553 315.446L893.888 330.818ZM866.24 286.385L866.24 285.831L866.24 265.621L866.24 264.259L867.474 264.837L894.601 277.542L919.999 263.471L921.285 262.759L921.285 264.229L921.285 282.347L921.285 282.838L920.864 283.09L894.386 298.949L893.993 299.184L893.578 298.992L866.744 286.618L866.24 286.385ZM867.973 285.277L893.888 297.227L919.553 281.856L919.553 265.699L895.054 279.271L894.667 279.486L894.266 279.298L867.973 266.983L867.973 285.277ZM866.24 250.123L866.24 250.677L866.744 250.909L893.578 263.284L893.993 263.475L894.386 263.24L920.864 247.382L921.285 247.13L921.285 246.639L921.285 228.52L921.285 227.05L919.999 227.763L894.601 241.833L867.474 229.128L866.24 228.55L866.24 229.913L866.24 250.123ZM893.888 261.519L867.973 249.568L867.973 231.275L894.266 243.59L894.667 243.777L895.054 243.563L919.553 229.991L919.553 246.148L893.888 261.519ZM881.661 1162.73C881.661 1169.35 887.028 1174.72 893.648 1174.72C900.268 1174.72 905.635 1169.35 905.635 1162.73C905.635 1156.11 900.268 1150.75 893.648 1150.75C887.028 1150.75 881.661 1156.11 881.661 1162.73ZM893.648 1176.29C886.159 1176.29 880.087 1170.22 880.087 1162.73C880.087 1155.24 886.159 1149.17 893.648 1149.17C901.137 1149.17 907.209 1155.24 907.209 1162.73C907.209 1170.22 901.137 1176.29 893.648 1176.29ZM893.648 1111.77C900.703 1111.77 906.422 1117.48 906.422 1124.54C906.422 1131.59 900.703 1137.31 893.648 1137.31C886.593 1137.31 880.874 1131.59 880.874 1124.54C880.874 1117.48 886.593 1111.77 893.648 1111.77ZM881.661 1086.36C881.661 1092.98 887.028 1098.35 893.648 1098.35C900.268 1098.35 905.635 1092.98 905.635 1086.36C905.635 1079.74 900.268 1074.38 893.648 1074.38C887.028 1074.38 881.661 1079.74 881.661 1086.36ZM893.648 1099.92C886.159 1099.92 880.087 1093.85 880.087 1086.36C880.087 1078.87 886.159 1072.8 893.648 1072.8C901.137 1072.8 907.209 1078.87 907.209 1086.36C907.209 1093.85 901.137 1099.92 893.648 1099.92ZM893.648 1035.4C900.703 1035.4 906.422 1041.12 906.422 1048.17C906.422 1055.23 900.703 1060.95 893.648 1060.95C886.593 1060.95 880.874 1055.23 880.874 1048.17C880.874 1041.12 886.593 1035.4 893.648 1035.4ZM881.661 1009.98C881.661 1016.6 887.028 1021.96 893.648 1021.96C900.268 1021.96 905.635 1016.6 905.635 1009.98C905.635 1003.36 900.268 997.991 893.648 997.991C887.028 997.991 881.661 1003.36 881.661 1009.98ZM893.648 1023.54C886.159 1023.54 880.087 1017.47 880.087 1009.98C880.087 1002.49 886.159 996.417 893.648 996.417C901.137 996.417 907.209 1002.49 907.209 1009.98C907.209 1017.47 901.137 1023.54 893.648 1023.54ZM893.648 959.028C900.703 959.028 906.422 964.747 906.422 971.801C906.422 978.856 900.703 984.575 893.648 984.575C886.593 984.575 880.874 978.856 880.874 971.801C880.874 964.747 886.593 959.028 893.648 959.028ZM881.661 933.608C881.661 940.228 887.028 945.595 893.648 945.595C900.268 945.595 905.635 940.228 905.635 933.608C905.635 926.987 900.268 921.621 893.648 921.621C887.028 921.621 881.661 926.987 881.661 933.608ZM893.648 947.168C886.159 947.168 880.087 941.097 880.087 933.608C880.087 926.118 886.159 920.047 893.648 920.047C901.137 920.047 907.209 926.118 907.209 933.608C907.209 941.097 901.137 947.168 893.648 947.168ZM23.3948 1319.66L23.3948 1327.96L13 1327.96L13 1319.66L23.3948 1319.66ZM23.3948 1286.42L23.3948 1303.04L13 1303.04L13 1286.42L23.3948 1286.42ZM23.3948 1253.19L23.3948 1269.81L13 1269.81L13 1253.19L23.3948 1253.19ZM23.3948 1219.96L23.3948 1236.58L13 1236.58L13 1219.96L23.3948 1219.96ZM23.3948 1186.73L23.3948 1203.34L13 1203.34L13 1186.73L23.3948 1186.73ZM23.3948 1153.5L23.3948 1170.11L13 1170.11L13 1153.5L23.3948 1153.5ZM23.3948 1120.26L23.3948 1136.88L13 1136.88L13 1120.26L23.3948 1120.26ZM23.3948 1087.03L23.3948 1103.65L13 1103.65L13 1087.03L23.3948 1087.03ZM23.3948 1053.8L23.3948 1070.42L13 1070.42L13 1053.8L23.3948 1053.8ZM23.3948 1020.57L23.3948 1037.19L13 1037.19L13 1020.57L23.3948 1020.57ZM23.3948 987.337L23.3948 1003.95L13 1003.95L13 987.337L23.3948 987.337ZM23.3948 962.413L23.3948 970.721L13 970.721L13 962.413L23.3948 962.413ZM898.291 910.439L898.291 901.642L887.896 901.642L887.896 910.439L898.291 910.439ZM898.291 884.046L898.291 866.451L887.896 866.451L887.896 884.046L898.291 884.046ZM898.291 848.856L898.291 831.26L887.896 831.26L887.896 848.856L898.291 848.856ZM898.291 813.665L898.291 796.07L887.896 796.07L887.896 813.665L898.291 813.665ZM898.291 778.474L898.291 760.879L887.896 760.879L887.896 778.474L898.291 778.474ZM898.291 743.284L898.291 725.688L887.896 725.688L887.896 743.284L898.291 743.284ZM898.291 708.093L898.291 690.497L887.896 690.497L887.896 708.093L898.291 708.093ZM898.291 672.902L898.291 655.307L887.896 655.307L887.896 672.902L898.291 672.902ZM898.291 637.711L898.291 620.116L887.896 620.116L887.896 637.711L898.291 637.711ZM898.291 602.521L898.291 584.925L887.896 584.925L887.896 602.521L898.291 602.521ZM898.291 567.33L898.291 549.735L887.896 549.734L887.896 567.33L898.291 567.33ZM898.291 532.139L898.291 514.544L887.896 514.544L887.896 532.139L898.291 532.139ZM898.291 496.948L898.291 479.353L887.896 479.353L887.896 496.948L898.291 496.948ZM898.291 461.758L898.291 444.162L887.896 444.162L887.896 461.758L898.291 461.758ZM898.291 426.567L898.291 408.972L887.896 408.972L887.896 426.567L898.291 426.567ZM898.291 391.376L898.291 373.781L887.896 373.781L887.896 391.376L898.291 391.376ZM898.291 356.186L898.291 347.388L887.896 347.388L887.896 356.186L898.291 356.186Z" fill="url(#paint0_linear_109_861)"/>
</g>
<defs>
<filter id="filter0_d_109_861" x="0.872737" y="0.872615" width="932.54" height="1533.25" filterUnits="userSpaceOnUse" color-interpolation-filters="sRGB">
<feFlood flood-opacity="0" result="BackgroundImageFix"/>
<feColorMatrix in="SourceAlpha" type="matrix" values="0 0 0 0 0 0 0 0 0 0 0 0 0 0 0 0 0 0 127 0" result="hardAlpha"/>
<feOffset/>
<feGaussianBlur stdDeviation="6.06363"/>
<feComposite in2="hardAlpha" operator="out"/>
<feColorMatrix type="matrix" values="0 0 0 0 1 0 0 0 0 0.0235294 0 0 0 0 0.784314 0 0 0 1 0"/>
<feBlend mode="normal" in2="BackgroundImageFix" result="effect1_dropShadow_109_861"/>
<feBlend mode="normal" in="SourceGraphic" in2="effect1_dropShadow_109_861" result="shape"/>
</filter>
<linearGradient id="paint0_linear_109_861" x1="30.3247" y1="1494.28" x2="875.768" y2="47.6705" gradientUnits="userSpaceOnUse">
<stop stop-color="#FF06C8"/>
<stop offset="1" stop-color="#5DDEFF"/>
</linearGradient>
</defs>
</svg>
