<svg width="886" height="539" viewBox="0 0 886 539" fill="none" xmlns="http://www.w3.org/2000/svg">
<g filter="url(#filter0_d_109_373)">
<path fill-rule="evenodd" clip-rule="evenodd" d="M13 43C13 26.4315 26.4315 13 43 13H110.5V7H43C23.1178 7 7 23.1177 7 43V332.5V399.362C7 409.53 11.3 419.224 18.8377 426.049L109.557 508.187C116.178 514.181 124.789 517.5 133.72 517.5H194V511.5H133.72C126.278 511.5 119.101 508.734 113.584 503.739L22.8647 421.601C16.5834 415.914 13 407.835 13 399.362V332.5V43ZM388.5 13H739.317C746.739 13 753.898 15.7512 759.409 20.7219L846.092 98.8985C852.399 104.587 856 112.683 856 121.177V164H862V121.177C862 110.984 857.679 101.269 850.11 94.4429L763.427 16.2663C756.814 10.3014 748.223 7 739.317 7H388.5V13ZM856 403.5V481.5C856 498.069 842.569 511.5 826 511.5H757V517.5H826C845.882 517.5 862 501.382 862 481.5V403.5H856ZM877.447 171.986L878.013 171H876.876H840.138H839L839.567 171.986L857.684 203.487H840.138L858.065 234.67H840.138H839L839.567 235.657L857.684 267.17H840.138L858.231 298.63H840.138H839L839.567 299.616L857.684 331.117H840.138L858.065 362.301H840.138H839L839.567 363.287L857.956 395.26L858.527 396.253L859.097 395.26L877.447 363.286L878.013 362.301H876.876H858.987L876.876 331.117H859.369L877.447 299.616L878.013 298.63H876.876H858.821L876.876 267.17H859.368L877.447 235.656L878.012 234.67H876.876H858.987L876.876 203.487H859.369L877.447 171.986ZM841.275 172.316H875.74L858.526 202.31L841.275 172.316ZM875.74 235.987H841.275L858.526 265.994L875.74 235.987ZM875.74 299.947H841.275L858.526 329.941L875.74 299.947ZM875.74 363.617H841.275L858.526 393.611L875.74 363.617ZM701.143 499.5H700.823L700.689 499.791L693.546 515.28L693.435 515.519L693.571 515.746L702.725 531.03L702.87 531.273H703.154H713.612H714.46L714.049 530.53L705.927 515.87L713.261 500.212L713.594 499.5H712.808H701.143ZM694.565 515.459L701.463 500.5H712.022L704.914 515.677L704.805 515.908L704.929 516.131L712.763 530.273H703.437L694.565 515.459ZM720.211 499.5H720.531H732.197H732.983L732.65 500.212L725.316 515.87L733.438 530.53L733.849 531.273H733H722.542H722.259L722.113 531.03L712.96 515.746L712.824 515.519L712.935 515.28L720.077 499.791L720.211 499.5ZM720.851 500.5L713.953 515.459L722.826 530.273H732.152L724.318 516.131L724.194 515.908L724.302 515.677L731.411 500.5H720.851ZM741.143 499.5H740.823L740.689 499.791L733.546 515.28L733.435 515.519L733.571 515.746L742.725 531.03L742.87 531.273H743.154H753.612H754.46L754.049 530.53L745.927 515.87L753.261 500.212L753.594 499.5H752.808H741.143ZM734.565 515.459L741.463 500.5H752.022L744.914 515.677L744.805 515.908L744.929 516.131L752.763 530.273H743.437L734.565 515.459ZM214.373 508.402C210.552 508.402 207.454 511.5 207.454 515.321C207.454 519.142 210.552 522.24 214.373 522.24C218.194 522.24 221.292 519.142 221.292 515.321C221.292 511.5 218.194 508.402 214.373 508.402ZM206.546 515.321C206.546 510.998 210.05 507.494 214.373 507.494C218.696 507.494 222.201 510.998 222.201 515.321C222.201 519.644 218.696 523.148 214.373 523.148C210.05 523.148 206.546 519.644 206.546 515.321ZM243.792 515.321C243.792 519.393 240.491 522.694 236.419 522.694C232.347 522.694 229.046 519.393 229.046 515.321C229.046 511.249 232.347 507.948 236.419 507.948C240.491 507.948 243.792 511.249 243.792 515.321ZM258.455 508.402C254.633 508.402 251.536 511.5 251.536 515.321C251.536 519.142 254.633 522.24 258.455 522.24C262.276 522.24 265.374 519.142 265.374 515.321C265.374 511.5 262.276 508.402 258.455 508.402ZM250.627 515.321C250.627 510.998 254.132 507.493 258.455 507.493C262.778 507.493 266.282 510.998 266.282 515.321C266.282 519.644 262.778 523.148 258.455 523.148C254.132 523.148 250.627 519.644 250.627 515.321ZM287.873 515.321C287.873 519.393 284.572 522.694 280.499 522.694C276.427 522.694 273.126 519.393 273.126 515.321C273.126 511.249 276.427 507.948 280.499 507.948C284.572 507.948 287.873 511.249 287.873 515.321ZM302.545 508.402C298.724 508.402 295.626 511.5 295.626 515.321C295.626 519.142 298.724 522.24 302.545 522.24C306.367 522.24 309.464 519.142 309.464 515.321C309.464 511.5 306.367 508.402 302.545 508.402ZM294.718 515.321C294.718 510.998 298.222 507.493 302.545 507.493C306.868 507.493 310.373 510.998 310.373 515.321C310.373 519.644 306.868 523.148 302.545 523.148C298.222 523.148 294.718 519.644 294.718 515.321ZM331.954 515.321C331.954 519.393 328.653 522.694 324.581 522.694C320.509 522.694 317.208 519.393 317.208 515.321C317.208 511.249 320.509 507.948 324.581 507.948C328.653 507.948 331.954 511.249 331.954 515.321ZM346.627 508.402C342.806 508.402 339.708 511.5 339.708 515.321C339.708 519.142 342.806 522.24 346.627 522.24C350.448 522.24 353.546 519.142 353.546 515.321C353.546 511.5 350.448 508.402 346.627 508.402ZM338.799 515.321C338.799 510.998 342.304 507.493 346.627 507.493C350.95 507.493 354.454 510.998 354.454 515.321C354.454 519.644 350.95 523.148 346.627 523.148C342.304 523.148 338.799 519.644 338.799 515.321ZM123.795 13H119V7H123.795V13ZM142.977 13H133.386V7H142.977V13ZM162.159 13H152.568V7H162.159V13ZM181.341 13H171.75V7H181.341V13ZM200.523 13H190.932V7H200.523V13ZM219.705 13H210.114V7H219.705V13ZM238.886 13H229.295V7H238.886V13ZM258.068 13H248.477V7H258.068V13ZM277.25 13H267.659V7H277.25V13ZM296.432 13H286.841V7H296.432V13ZM315.614 13H306.023V7H315.614V13ZM330 13H325.205V7H330V13ZM360 518H365.078V512H360V518ZM375.234 518H385.391V512H375.234V518ZM395.547 518H405.703V512H395.547V518ZM415.859 518H426.016V512H415.859V518ZM436.172 518H446.328V512H436.172V518ZM456.484 518H466.641V512H456.484V518ZM476.797 518H486.953V512H476.797V518ZM497.109 518H507.266V512H497.109V518ZM517.422 518H527.578V512H517.422V518ZM537.734 518H547.891V512H537.734V518ZM558.047 518H568.203V512H558.047V518ZM578.359 518H588.516V512H578.359V518ZM598.672 518H608.828V512H598.672V518ZM618.984 518H629.141V512H618.984V518ZM639.297 518H649.453V512H639.297V518ZM659.609 518H669.766V512H659.609V518ZM679.922 518H685V512H679.922V518Z" fill="url(#paint0_linear_109_373)"/>
</g>
<defs>
<filter id="filter0_d_109_373" x="0" y="0" width="885.013" height="538.273" filterUnits="userSpaceOnUse" color-interpolation-filters="sRGB">
<feFlood flood-opacity="0" result="BackgroundImageFix"/>
<feColorMatrix in="SourceAlpha" type="matrix" values="0 0 0 0 0 0 0 0 0 0 0 0 0 0 0 0 0 0 127 0" result="hardAlpha"/>
<feOffset/>
<feGaussianBlur stdDeviation="3.5"/>
<feComposite in2="hardAlpha" operator="out"/>
<feColorMatrix type="matrix" values="0 0 0 0 1 0 0 0 0 0.0235294 0 0 0 0 0.784314 0 0 0 1 0"/>
<feBlend mode="normal" in2="BackgroundImageFix" result="effect1_dropShadow_109_373"/>
<feBlend mode="normal" in="SourceGraphic" in2="effect1_dropShadow_109_373" result="shape"/>
</filter>
<linearGradient id="paint0_linear_109_373" x1="23" y1="17" x2="858" y2="505" gradientUnits="userSpaceOnUse">
<stop stop-color="#FF06C8"/>
<stop offset="1" stop-color="#5DDEFF"/>
</linearGradient>
</defs>
</svg>
