<svg width="943" height="629" viewBox="0 0 943 629" fill="none" xmlns="http://www.w3.org/2000/svg">
<path fill-rule="evenodd" clip-rule="evenodd" d="M6.16533 0H0V6.16533V113.678H12.3307V12.3307H168.51V0H6.16533ZM930.276 514.73V616.077H774.097V628.408H936.441H942.607V622.242V514.73H930.276ZM0 622.242V514.73H12.3307V616.077H168.51V628.408H6.16533H0V622.242ZM774.097 12.3307H930.276V113.678H942.607V6.16533V0H936.441H774.097V12.3307ZM849.34 563.924V550.914H853.101V565.805V567.685H851.22H828.736V563.924H849.34ZM137.692 567.685H155.564V563.924H137.692V567.685ZM191.309 567.685H227.053V563.924H191.309V567.685ZM262.798 567.685H298.543V563.924H262.798V567.685ZM334.287 567.685H370.032V563.924H334.287V567.685ZM405.776 567.685H441.521V563.924H405.776V567.685ZM477.266 567.685H513.01V563.924H477.266V567.685ZM548.755 567.685H584.499V563.924H548.755V567.685ZM620.244 567.685H655.988V563.924H620.244V567.685ZM691.733 567.685H727.478V563.924H691.733V567.685ZM763.222 567.685H781.094V563.924H763.222V567.685ZM93.2677 563.924V550.914H89.5068V565.805V567.685H91.3872H113.872V563.924H93.2677ZM89.5068 93.2689V111.023H93.2677V93.2689H89.5068ZM89.5068 146.531V182.039H93.2677V146.531H89.5068ZM89.5068 217.546V253.054H93.2677V217.546H89.5068ZM89.5068 288.562V324.07H93.2677V288.562H89.5068ZM89.5068 359.578V395.086H93.2677V359.578H89.5068ZM89.5068 430.594V466.102H93.2677V430.594H89.5068ZM89.5068 501.609V519.363H93.2677V501.609H89.5068ZM89.5068 60.7226H91.3872H113.872V64.4835H93.2677V77.4935H89.5068V62.6031V60.7226ZM161.513 64.4835H179.385V60.7226H161.513V64.4835ZM215.13 64.4835H250.874V60.7226H215.13V64.4835ZM286.619 64.4835H322.364V60.7226H286.619V64.4835ZM358.108 64.4835H393.853V60.7226H358.108V64.4835ZM429.597 64.4835H465.342V60.7226H429.597V64.4835ZM501.087 64.4835H536.831V60.7226H501.087V64.4835ZM572.576 64.4835H608.32V60.7226H572.576V64.4835ZM644.065 64.4835H679.81V60.7226H644.065V64.4835ZM715.554 64.4835H751.299V60.7226H715.554V64.4835ZM787.043 64.4835H804.916V60.7226H787.043V64.4835ZM849.34 64.4835H828.736V60.7226H851.22H853.101V62.6031V77.4935H849.34V64.4835ZM849.341 109.044V126.798H853.101V109.044H849.341ZM849.341 162.306V197.814H853.101V162.306H849.341ZM849.341 233.322V268.83H853.101V233.322H849.341ZM849.341 304.338V339.845H853.101V304.338H849.341ZM849.341 375.353V410.861H853.101V375.353H849.341ZM849.341 446.369V481.877H853.101V446.369H849.341ZM849.341 517.385V535.139H853.101V517.385H849.341Z" fill="url(#paint0_linear_99_4776)" fill-opacity="0.5"/>
<defs>
<linearGradient id="paint0_linear_99_4776" x1="0.303704" y1="0.203929" x2="942.304" y2="628.204" gradientUnits="userSpaceOnUse">
<stop stop-color="#4FD1C5"/>
<stop offset="1" stop-color="#FF06C8"/>
</linearGradient>
</defs>
</svg>
