<svg width="525" height="91" viewBox="0 0 525 91" fill="none" xmlns="http://www.w3.org/2000/svg">
<path fill-rule="evenodd" clip-rule="evenodd" d="M447.526 1.31667L445.232 0V2.64522V44.2799L372.655 2.64522V43.3921L299.34 1.31667L297.046 4.76837e-07V2.64522V44.6658L223.826 2.64522V43.3923L150.48 1.31653L148.186 0.000542164V2.64522V44.2799L75.6093 2.64522V43.3921L2.29425 1.31667L0 6.30554e-06V2.64523V88.1501V90.7981L2.29549 89.4779L75.6093 47.3127V88.1501L148.186 46.4258V88.15V90.7976L150.482 89.478L223.826 47.3124V88.1501L297.046 46.039V88.15V90.7981L299.341 89.4779L372.655 47.3127V88.1501L445.232 46.4257V88.15V90.7981L447.527 89.4779L521.942 46.6795L524.253 45.3503L521.941 44.0231L447.526 1.31667ZM448.296 85.502V5.29045L518.103 45.3531L448.296 85.502ZM300.109 85.502V5.29045L369.917 45.3531L300.109 85.502ZM3.06359 5.29045V85.502L72.8715 45.3531L3.06359 5.29045ZM151.25 85.5025V5.28991L221.087 45.3531L151.25 85.5025Z" fill="url(#paint0_linear_109_565)" fill-opacity="0.5"/>
<defs>
<linearGradient id="paint0_linear_109_565" x1="9.99998" y1="-40.6022" x2="472" y2="149.398" gradientUnits="userSpaceOnUse">
<stop stop-color="#00FFF1"/>
<stop offset="1" stop-color="#FF06C8"/>
</linearGradient>
</defs>
</svg>
