<svg width="203" height="39" viewBox="0 0 203 39" fill="none" xmlns="http://www.w3.org/2000/svg">
<path fill-rule="evenodd" clip-rule="evenodd" d="M76.3282 28.5361C76.3705 28.8174 76.2515 29.3725 76.1312 29.9336L76.1311 29.9341C76.0707 30.216 76.01 30.4994 75.9692 30.7504C75.5432 33.3683 73.1177 35.3746 70.5101 36.2249L61.4608 34.7562C59.2552 33.126 57.7436 30.479 58.1679 27.8611C58.2088 27.6091 58.2249 27.3481 58.241 27.0886C58.2729 26.5748 58.3043 26.0668 58.5269 25.6468C61.0183 26.7904 64.0974 26.7682 67.1071 26.7465C70.6259 26.7211 74.0497 26.6965 76.3282 28.5361ZM65.3482 23.5718C65.4045 23.2246 65.3566 22.8686 65.2105 22.5487C65.0645 22.2288 64.8268 21.9594 64.5277 21.7746C64.2285 21.5898 63.8812 21.4978 63.5298 21.5103C63.1783 21.5229 62.8385 21.6394 62.5533 21.8451C62.268 22.0508 62.0502 22.3364 61.9274 22.6659C61.8045 22.9954 61.7821 23.354 61.863 23.6962C61.9439 24.0384 62.1245 24.349 62.3819 24.5885C62.6393 24.8281 62.962 24.986 63.3092 25.0422C63.7745 25.117 64.2505 25.0042 64.6327 24.7286C65.015 24.4529 65.2723 24.0369 65.3482 23.5718ZM64.5133 23.4361C64.4841 23.6183 64.4014 23.7877 64.2758 23.923C64.1503 24.0582 63.9874 24.1532 63.8078 24.1958C63.6282 24.2384 63.44 24.2268 63.2671 24.1625C63.0941 24.0981 62.9441 23.9838 62.8361 23.8342C62.728 23.6846 62.6668 23.5062 62.6602 23.3218C62.6536 23.1373 62.7018 22.9551 62.7988 22.798C62.8958 22.641 63.0372 22.5163 63.2051 22.4397C63.373 22.3631 63.5599 22.338 63.7421 22.3676C63.9859 22.4072 64.2041 22.542 64.3487 22.7423C64.4932 22.9426 64.5525 23.1921 64.5133 23.4361ZM73.3771 24.8738C73.4333 24.5268 73.3854 24.1709 73.2394 23.851C73.0933 23.5312 72.8558 23.2619 72.5567 23.077C72.2576 22.8922 71.9105 22.8002 71.5591 22.8127C71.2077 22.8251 70.868 22.9415 70.5827 23.147C70.2975 23.3525 70.0796 23.638 69.9566 23.9674C69.8335 24.2967 69.8109 24.6552 69.8916 24.9974C69.9722 25.3396 70.1526 25.6502 70.4097 25.8899C70.6669 26.1296 70.9893 26.2878 71.3364 26.3443C71.8019 26.4196 72.2784 26.3071 72.661 26.0313C73.0436 25.7556 73.3012 25.3393 73.3771 24.8738ZM72.5405 24.7381C72.5109 24.9199 72.4282 25.0888 72.3026 25.2235C72.177 25.3582 72.0144 25.4526 71.8352 25.4949C71.6559 25.5371 71.4682 25.5252 71.2957 25.4608C71.1232 25.3964 70.9737 25.2822 70.8661 25.1328C70.7585 24.9834 70.6976 24.8054 70.6911 24.6214C70.6846 24.4373 70.7329 24.2555 70.8297 24.0989C70.9266 23.9423 71.0677 23.818 71.2352 23.7415C71.4028 23.6651 71.5892 23.6401 71.771 23.6697C71.8921 23.6895 72.008 23.733 72.1123 23.7977C72.2166 23.8624 72.307 23.9471 72.3785 24.0468C72.45 24.1465 72.5011 24.2594 72.5289 24.3789C72.5567 24.4984 72.5607 24.6222 72.5405 24.7433V24.7381ZM70.876 2.25411C70.9272 1.93753 70.8834 1.61287 70.7502 1.32118C70.6169 1.02948 70.4001 0.78385 70.1273 0.615341C69.8544 0.446832 69.5377 0.363012 69.2172 0.374481C68.8968 0.385949 68.5869 0.492193 68.3267 0.679773C68.0666 0.867354 67.868 1.12785 67.7559 1.42832C67.6438 1.7288 67.6234 2.05576 67.6971 2.36787C67.7708 2.67997 67.9354 2.9632 68.1702 3.18175C68.4048 3.4003 68.6991 3.54436 69.0156 3.5957C69.2259 3.6298 69.4408 3.62214 69.6481 3.57317C69.8554 3.5242 70.051 3.43487 70.2237 3.31029C70.3965 3.1857 70.543 3.02831 70.6549 2.84709C70.7668 2.66587 70.842 2.46437 70.876 2.25411ZM70.0411 2.11841C70.0167 2.27006 69.9479 2.41106 69.8434 2.52358C69.7388 2.6361 69.6032 2.71508 69.4538 2.75052C69.3043 2.78597 69.1477 2.7763 69.0038 2.72272C68.8598 2.66915 68.735 2.57409 68.6451 2.44956C68.5552 2.32503 68.5042 2.17662 68.4986 2.02313C68.4931 1.86963 68.5332 1.71793 68.6139 1.58723C68.6945 1.45652 68.8122 1.35269 68.9519 1.28885C69.0916 1.22501 69.2471 1.20404 69.3987 1.22859C69.6016 1.26192 69.7831 1.37422 69.9035 1.54095C70.0239 1.70769 70.0734 1.9153 70.0411 2.11841ZM75.8816 2.20945C75.9418 1.8373 75.8903 1.45564 75.7335 1.11279C75.5768 0.769937 75.3218 0.481308 75.0009 0.283449C74.68 0.0855898 74.3076 -0.0126027 73.9308 0.00129539C73.5541 0.0151934 73.1899 0.140561 72.8845 0.361527C72.579 0.582492 72.346 0.889116 72.2149 1.24259C72.0838 1.59606 72.0606 1.98048 72.1481 2.34718C72.2356 2.71388 72.4299 3.04638 72.7065 3.30257C72.9831 3.55876 73.3294 3.72714 73.7017 3.78637C74.2005 3.86664 74.7108 3.74565 75.1205 3.44999C75.5302 3.15432 75.8058 2.70815 75.8868 2.20945H75.8816ZM75.0468 2.07374C75.0131 2.28031 74.919 2.47226 74.7763 2.62532C74.6335 2.77838 74.4486 2.88568 74.2449 2.93365C74.0412 2.98162 73.8278 2.96811 73.6318 2.89483C73.4358 2.82154 73.2659 2.69177 73.1436 2.52193C73.0213 2.35208 72.9522 2.14979 72.9449 1.94064C72.9375 1.73148 72.9924 1.52486 73.1025 1.34689C73.2127 1.16892 73.3731 1.02761 73.5635 0.940816C73.754 0.854021 73.9658 0.825642 74.1724 0.859273C74.4491 0.903635 74.697 1.05577 74.8618 1.2824C75.0266 1.50902 75.095 1.7917 75.0519 2.06859L75.0468 2.07374ZM78.1388 33.0058C80.0661 28.3369 78.7365 22.8142 75.112 20.4317C73.9371 19.6569 72.8583 19.0299 72.3069 18.7139C72.4787 17.4479 73.0318 13.6413 73.6004 11.1075L73.8632 10.6008L75.9245 8.46045L76.0963 7.35592C76.1659 6.93504 76.0657 6.50374 75.8178 6.15661C75.5698 5.80948 75.1943 5.57485 74.7736 5.50415L67.0763 4.25533C66.6551 4.18692 66.224 4.28854 65.8777 4.53785C65.5315 4.78717 65.2983 5.16377 65.2296 5.58489L65.0373 6.77359L66.6107 9.45505L66.6932 9.99099C66.4321 12.5797 65.7467 16.3743 65.5148 17.6248C64.8998 17.7536 63.6819 18.0199 62.3369 18.3549C58.0425 19.425 55.0381 24.0527 55.3524 29.1185C55.7269 35.1994 60.5058 37.9324 64.8328 38.4512L66.3634 38.7002C66.5815 38.7449 66.7945 38.7844 67.0041 38.8188C74.5967 40.0453 77.4448 34.7064 78.1473 33.0058H78.1388ZM66.4785 5.79618C66.4937 5.70752 66.543 5.62836 66.6159 5.57568C66.6888 5.52301 66.7795 5.50102 66.8684 5.51446L74.5641 6.76328C74.6527 6.77846 74.7319 6.82781 74.7846 6.90072C74.8372 6.97363 74.8592 7.06428 74.8458 7.15322L74.7307 7.8661L72.8343 9.85529L72.4495 10.5991L72.3945 10.7485C71.6868 13.8612 71.0323 18.7671 71.0048 18.975L70.9464 19.4061L71.3295 19.6157L71.3533 19.629C71.5495 19.7382 72.926 20.5042 74.4215 21.4915C77.5547 23.5529 78.6747 28.3953 76.9707 32.5214C75.2941 36.596 71.4257 38.4323 66.5918 37.4549L65.0098 37.1989C60.0282 36.5925 56.8967 33.5469 56.6184 29.0446C56.3814 25.1933 58.5698 20.6052 62.6427 19.5968C64.5322 19.1261 66.1693 18.7929 66.1864 18.7895L66.6039 18.7053L66.6846 18.2879L66.6989 18.2118C66.8237 17.5481 67.6708 13.0443 67.9661 10.0425L67.8286 9.0256L66.3634 6.53482L66.4836 5.79961L66.4785 5.79618ZM0.6875 37.57C0.596428 37.5731 0.505689 37.5574 0.420916 37.524C0.336143 37.4906 0.259144 37.4401 0.194708 37.3756C0.130272 37.3112 0.0797756 37.2342 0.0463471 37.1494C0.0129187 37.0647 -0.00272598 36.9739 0.000388332 36.8828V18.9527C-0.00272598 18.8616 0.0129187 18.7708 0.0463471 18.6861C0.0797756 18.6013 0.130272 18.5243 0.194708 18.4599C0.259144 18.3954 0.336143 18.3449 0.420916 18.3115C0.505689 18.2781 0.596428 18.2624 0.6875 18.2655H7.85923C9.66176 18.2655 11.1969 18.5599 12.4646 19.1485C13.6774 19.6712 14.6978 20.5578 15.3848 21.6856C16.0651 22.7885 16.4327 24.1587 16.4876 25.7963C16.5071 26.6048 16.5163 27.3125 16.5151 27.9195C16.514 28.5264 16.5048 29.225 16.4876 30.0152C16.4144 31.7261 16.0467 33.1421 15.3848 34.2632C14.7386 35.3849 13.7432 36.2645 12.5505 36.7677C11.3183 37.3003 9.80147 37.5671 8.00009 37.5682L0.6875 37.57ZM4.93557 33.5984H7.8558C8.52678 33.6211 9.19474 33.4986 9.81407 33.2394C10.3351 32.9935 10.7542 32.5738 10.9993 32.0524C11.2765 31.5199 11.4236 30.8214 11.4408 29.9568C11.4769 29.4242 11.4958 28.945 11.4958 28.5224C11.4958 28.3816 11.4979 28.2408 11.5 28.1L11.5 28.0998C11.5042 27.8181 11.5084 27.5364 11.4958 27.2547C11.4888 27.0998 11.4845 26.9384 11.4799 26.7708V26.7708C11.472 26.4812 11.4637 26.1731 11.4408 25.8478C11.403 24.5973 11.0721 23.6869 10.4479 23.1166C9.84098 22.5291 8.93056 22.2348 7.71666 22.2336H4.93901L4.93557 33.5984ZM20.1748 37.525C20.2598 37.5583 20.3508 37.5736 20.442 37.5699L33.5349 37.5682C33.6261 37.5719 33.7171 37.5566 33.8021 37.5233C33.8871 37.4901 33.9643 37.4396 34.0288 37.375C34.0934 37.3105 34.1438 37.2333 34.1771 37.1483C34.2103 37.0633 34.2256 36.9723 34.222 36.8811V34.289C34.2259 34.1977 34.2108 34.1066 34.1776 34.0215C34.1445 33.9364 34.094 33.8591 34.0294 33.7945C33.9648 33.7299 33.8875 33.6794 33.8024 33.6462C33.7172 33.6131 33.6262 33.598 33.5349 33.6019H24.5165V29.7678H32.7069C32.7985 29.771 32.8898 29.7555 32.9752 29.7221C33.0606 29.6887 33.1382 29.6382 33.2034 29.5737C33.328 29.4384 33.3973 29.2612 33.3975 29.0772V26.6724C33.4005 26.5808 33.3848 26.4895 33.3515 26.4042C33.3181 26.3188 33.2677 26.2412 33.2034 26.1759C33.1421 26.1047 33.0658 26.048 32.9799 26.01C32.8941 25.9719 32.8008 25.9535 32.7069 25.956H24.5165V22.2319H33.3253C33.4166 22.2358 33.5077 22.2207 33.5928 22.1875C33.6779 22.1544 33.7552 22.1039 33.8198 22.0393C33.8844 21.9747 33.9349 21.8974 33.968 21.8123C34.0012 21.7271 34.0163 21.6361 34.0124 21.5448V18.9527C34.0161 18.8614 34.0008 18.7705 33.9675 18.6855C33.9343 18.6005 33.8838 18.5233 33.8193 18.4587C33.7547 18.3942 33.6775 18.3437 33.5925 18.3104C33.5075 18.2772 33.4165 18.2619 33.3253 18.2655H20.442C20.3508 18.2619 20.2598 18.2772 20.1748 18.3104C20.0898 18.3437 20.0126 18.3942 19.948 18.4587C19.8835 18.5233 19.833 18.6005 19.7998 18.6855C19.7665 18.7705 19.7512 18.8614 19.7549 18.9527V36.8828C19.7512 36.974 19.7665 37.065 19.7998 37.15C19.833 37.235 19.8835 37.3122 19.948 37.3768C20.0126 37.4413 20.0898 37.4918 20.1748 37.525ZM42.7731 37.5699C42.5026 37.5839 42.2369 37.4949 42.0293 37.3209C41.8514 37.1656 41.718 36.9658 41.6428 36.742L36.0102 19.0901C35.9767 19.0111 35.9581 18.9267 35.9552 18.841C35.956 18.7685 35.9716 18.697 36.0012 18.6308C36.0307 18.5646 36.0736 18.5052 36.127 18.4562C36.1837 18.3953 36.2523 18.3467 36.3285 18.3133C36.4048 18.2799 36.487 18.2625 36.5702 18.2621H39.9886C40.114 18.255 40.2396 18.2734 40.3577 18.3163C40.4758 18.3591 40.5839 18.4254 40.6757 18.5112C40.8167 18.6375 40.9212 18.7995 40.978 18.9801L44.8671 31.7226L48.7853 18.9801C48.8574 18.8066 48.9604 18.6477 49.0894 18.5112C49.181 18.4252 49.2892 18.3588 49.4073 18.316C49.5254 18.2732 49.6511 18.2548 49.7765 18.2621H53.1966C53.2759 18.2604 53.3545 18.2771 53.4263 18.3107C53.4981 18.3444 53.5612 18.3942 53.6106 18.4562C53.6699 18.5016 53.7181 18.5597 53.7517 18.6264C53.7854 18.693 53.8035 18.7664 53.8047 18.841C53.8018 18.9267 53.7832 19.0111 53.7497 19.0901L48.1188 36.742C48.043 36.9655 47.9097 37.1651 47.7323 37.3209C47.6311 37.4097 47.5132 37.4775 47.3855 37.5203C47.2578 37.563 47.1228 37.5799 46.9885 37.5699H42.7731ZM83.5022 37.8004C83.5873 37.8336 83.6784 37.8487 83.7696 37.8448L96.4279 37.8396C96.5195 37.8432 96.6107 37.828 96.6961 37.7949C96.7815 37.7618 96.8592 37.7115 96.9244 37.6473C96.9956 37.586 97.0523 37.5097 97.0903 37.4238C97.1284 37.338 97.1468 37.2447 97.1443 37.1508V34.3921C97.1467 34.2982 97.1282 34.205 97.0902 34.1191C97.0521 34.0332 96.9955 33.9569 96.9244 33.8956C96.8634 33.8241 96.7871 33.7672 96.7012 33.7292C96.6153 33.6911 96.5219 33.6728 96.4279 33.6757H88.0984V19.2275C88.0937 19.0468 88.0197 18.8748 87.8919 18.7469C87.7641 18.6191 87.5921 18.5452 87.4113 18.5404H83.7696C83.6784 18.5365 83.5873 18.5516 83.5022 18.5848C83.417 18.6179 83.3397 18.6684 83.2751 18.733C83.2105 18.7976 83.1601 18.8749 83.1269 18.96C83.0938 19.0451 83.0786 19.1362 83.0825 19.2275V37.1577C83.0786 37.249 83.0938 37.34 83.1269 37.4252C83.1601 37.5103 83.2105 37.5876 83.2751 37.6522C83.3397 37.7168 83.417 37.7673 83.5022 37.8004ZM102.576 37.8448C102.305 37.8593 102.039 37.7709 101.83 37.5974C101.653 37.4414 101.52 37.2418 101.444 37.0185L95.8181 19.3666C95.7847 19.2877 95.766 19.2033 95.7632 19.1176C95.7637 19.0448 95.7792 18.9729 95.8088 18.9064C95.8383 18.8399 95.8813 18.7802 95.935 18.7311C95.9916 18.6706 96.0599 18.6224 96.1358 18.5893C96.2117 18.5562 96.2936 18.539 96.3764 18.5387H99.7965C99.9218 18.5319 100.047 18.5504 100.165 18.5929C100.283 18.6353 100.391 18.701 100.484 18.786C100.624 18.9129 100.728 19.0747 100.786 19.255L104.675 31.9975L108.592 19.255C108.664 19.0817 108.767 18.9228 108.896 18.786C108.988 18.7007 109.096 18.6348 109.214 18.5923C109.332 18.5498 109.457 18.5316 109.583 18.5387H113.003C113.082 18.5368 113.16 18.5532 113.232 18.5865C113.304 18.6199 113.367 18.6693 113.417 18.7311C113.476 18.7767 113.524 18.8353 113.557 18.9022C113.591 18.9692 113.608 19.0428 113.609 19.1176C113.607 19.2034 113.589 19.288 113.554 19.3666L107.928 37.0185C107.852 37.2418 107.719 37.4414 107.542 37.5974C107.44 37.6862 107.322 37.7538 107.194 37.7963C107.066 37.8387 106.931 37.8552 106.796 37.8448H102.576ZM116.606 37.7999C116.691 37.8331 116.782 37.8484 116.873 37.8448H129.976C130.067 37.8484 130.158 37.8331 130.243 37.7999C130.328 37.7666 130.406 37.7162 130.47 37.6516C130.535 37.5871 130.585 37.5099 130.618 37.4249C130.652 37.3399 130.667 37.2489 130.663 37.1577V34.5656C130.666 34.4745 130.651 34.3837 130.617 34.299C130.584 34.2142 130.533 34.1372 130.469 34.0728C130.405 34.0083 130.328 33.9578 130.243 33.9244C130.158 33.891 130.067 33.8753 129.976 33.8784H120.958V30.0444H129.15C129.241 30.0477 129.333 30.0324 129.418 29.9993C129.503 29.9662 129.581 29.9161 129.646 29.852C129.77 29.7164 129.839 29.5393 129.839 29.3555V26.9506C129.842 26.8591 129.827 26.7679 129.794 26.6825C129.761 26.5971 129.711 26.5194 129.646 26.4542C129.585 26.3828 129.509 26.326 129.423 26.2879C129.337 26.2499 129.244 26.2315 129.15 26.2343H120.958V22.5102H129.756C129.848 22.5141 129.939 22.499 130.024 22.4658C130.109 22.4326 130.186 22.3822 130.251 22.3176C130.315 22.253 130.366 22.1757 130.399 22.0905C130.432 22.0054 130.447 21.9143 130.443 21.8231V19.2275C130.447 19.1362 130.432 19.0451 130.399 18.96C130.366 18.8749 130.315 18.7976 130.251 18.733C130.186 18.6684 130.109 18.6179 130.024 18.5848C129.939 18.5516 129.848 18.5365 129.756 18.5404H116.873C116.782 18.5368 116.691 18.552 116.606 18.5853C116.521 18.6185 116.444 18.669 116.379 18.7336C116.314 18.7981 116.264 18.8753 116.231 18.9603C116.198 19.0453 116.182 19.1363 116.186 19.2275V37.1577C116.182 37.2489 116.198 37.3399 116.231 37.4249C116.264 37.5099 116.314 37.5871 116.379 37.6516C116.444 37.7162 116.521 37.7666 116.606 37.7999ZM140.36 37.8448C140.269 37.8484 140.178 37.8331 140.093 37.7999C140.008 37.7666 139.931 37.7161 139.866 37.6516C139.802 37.5871 139.751 37.5099 139.718 37.4249C139.685 37.3399 139.669 37.2489 139.673 37.1577V19.2275C139.669 19.1363 139.685 19.0453 139.718 18.9603C139.751 18.8753 139.802 18.7981 139.866 18.7336C139.931 18.669 140.008 18.6185 140.093 18.5853C140.178 18.552 140.269 18.5368 140.36 18.5404H144C144.087 18.5389 144.173 18.5551 144.253 18.5878C144.333 18.6206 144.405 18.6693 144.466 18.7311C144.537 18.7921 144.594 18.8684 144.632 18.9543C144.67 19.0402 144.688 19.1336 144.686 19.2275V33.6757H153.015C153.109 33.6726 153.202 33.6907 153.288 33.7288C153.374 33.7669 153.451 33.8239 153.512 33.8956C153.583 33.9566 153.64 34.0328 153.679 34.1187C153.717 34.2046 153.736 34.298 153.733 34.3921V37.1508C153.736 37.2449 153.717 37.3383 153.679 37.4242C153.64 37.5101 153.583 37.5864 153.512 37.6472C153.446 37.7116 153.369 37.7619 153.283 37.795C153.198 37.8281 153.107 37.8433 153.015 37.8396L140.36 37.8448ZM157.45 37.5699C158.291 37.9479 159.205 38.1362 160.127 38.1214C160.764 38.1307 161.398 38.0343 162.004 37.8362C162.517 37.6901 163.002 37.4577 163.437 37.1491C163.812 36.8847 164.139 36.5582 164.404 36.1837V37.1491C164.4 37.2404 164.415 37.3314 164.448 37.4166C164.481 37.5017 164.532 37.579 164.597 37.6436C164.661 37.7082 164.738 37.7587 164.824 37.7918C164.909 37.825 165 37.8401 165.091 37.8362H168.29C168.377 37.8379 168.463 37.8217 168.544 37.7886C168.625 37.7556 168.698 37.7062 168.759 37.6438C168.83 37.5829 168.887 37.5067 168.926 37.4208C168.964 37.3349 168.983 37.2414 168.98 37.1474V28.7629C168.99 28.0095 168.859 27.2608 168.594 26.5555C168.341 25.8833 167.935 25.2792 167.408 24.7914C166.824 24.2551 166.126 23.8586 165.366 23.6319C164.373 23.3356 163.34 23.1959 162.305 23.2179C161.315 23.1969 160.329 23.3367 159.385 23.6319C158.666 23.8602 157.993 24.215 157.399 24.6797C156.94 25.041 156.548 25.48 156.241 25.9767C156.027 26.3168 155.904 26.7058 155.882 27.107C155.872 27.1861 155.879 27.2665 155.903 27.3426C155.926 27.4188 155.966 27.489 156.019 27.5484C156.082 27.607 156.156 27.6524 156.237 27.6819C156.317 27.7114 156.403 27.7244 156.488 27.7202H159.58C159.716 27.7243 159.851 27.6934 159.971 27.6305C160.091 27.5677 160.193 27.4749 160.268 27.3612C160.439 27.0248 160.697 26.7394 161.013 26.5332C161.399 26.3169 161.838 26.2122 162.281 26.2309C163.016 26.2309 163.523 26.4112 163.798 26.7548C164.074 27.1029 164.212 27.6085 164.212 28.2716V28.6564L160.764 29.182C158.998 29.4569 157.582 29.9808 156.516 30.7538C156.009 31.091 155.596 31.5518 155.316 32.0928C155.036 32.6337 154.899 33.237 154.917 33.8458C154.907 34.6267 155.148 35.3901 155.604 36.0239C156.082 36.6841 156.716 37.2153 157.45 37.5699ZM162.856 34.6463C162.412 34.8713 161.92 34.9845 161.422 34.9761C161.084 34.9804 160.747 34.924 160.429 34.8095C160.153 34.6931 159.907 34.5137 159.713 34.2855C159.526 34.0611 159.428 33.7766 159.436 33.4851C159.441 33.2766 159.497 33.0724 159.598 32.89C159.699 32.7076 159.843 32.5522 160.017 32.4372C160.42 32.1246 161.054 31.8955 161.918 31.7501L164.263 31.3361V31.7226C164.284 32.3603 164.152 32.9937 163.877 33.5692C163.658 34.0268 163.301 34.4038 162.856 34.6463ZM180.864 38.1214C179.833 38.1214 178.968 37.9496 178.27 37.606C177.625 37.2834 177.053 36.8328 176.588 36.2816V37.1646C176.591 37.2586 176.572 37.352 176.534 37.438C176.495 37.5239 176.438 37.6001 176.367 37.661C176.306 37.7234 176.233 37.7727 176.152 37.8058C176.071 37.8389 175.985 37.8551 175.898 37.8534H172.782C172.69 37.8573 172.599 37.8422 172.514 37.809C172.429 37.7758 172.352 37.7254 172.287 37.6608C172.222 37.5962 172.172 37.5189 172.139 37.4338C172.106 37.3486 172.091 37.2575 172.094 37.1663V18.9578C172.091 18.8666 172.106 18.7756 172.139 18.6906C172.173 18.6056 172.223 18.5284 172.288 18.4639C172.352 18.3993 172.429 18.3488 172.514 18.3156C172.599 18.2824 172.69 18.2671 172.782 18.2707H176.147C176.238 18.2671 176.329 18.2824 176.414 18.3156C176.499 18.3488 176.576 18.3993 176.641 18.4639C176.705 18.5284 176.756 18.6056 176.789 18.6906C176.822 18.7756 176.837 18.8666 176.834 18.9578V24.8601C177.3 24.3639 177.864 23.9692 178.49 23.7006C179.237 23.3742 180.047 23.2142 180.862 23.2316C181.694 23.2133 182.521 23.3713 183.288 23.6954C183.987 23.9786 184.611 24.423 185.107 24.9924C185.62 25.5923 186.013 26.2851 186.266 27.0331C186.554 27.8971 186.712 28.799 186.735 29.7094C186.752 30.0529 186.763 30.3793 186.763 30.6748C186.763 30.9702 186.752 31.2726 186.735 31.6402C186.714 32.5796 186.546 33.5099 186.237 34.3972C185.986 35.1457 185.593 35.8386 185.079 36.4379C184.584 36.9891 183.972 37.4227 183.288 37.7074C182.513 37.9967 181.691 38.1372 180.864 38.1214ZM179.374 34.4247C179.997 34.4247 180.485 34.2959 180.836 34.0382C181.189 33.7762 181.449 33.4094 181.58 32.9903C181.751 32.5202 181.854 32.0279 181.884 31.5285C181.92 30.9594 181.92 30.3885 181.884 29.8193C181.854 29.32 181.751 28.8276 181.58 28.3575C181.448 27.9387 181.188 27.572 180.836 27.3096C180.486 27.052 179.999 26.9231 179.374 26.9231C178.877 26.9025 178.385 27.0376 177.968 27.3096C177.603 27.5439 177.316 27.8794 177.14 28.275C176.953 28.6725 176.849 29.1039 176.836 29.5428C176.818 29.8863 176.808 30.2299 176.808 30.5631C176.808 30.8964 176.818 31.2502 176.836 31.6127C176.85 32.083 176.944 32.5476 177.112 32.9869C177.273 33.4055 177.551 33.7692 177.913 34.0348C178.348 34.3129 178.859 34.4491 179.374 34.4247ZM192.333 37.7349C193.329 38.0125 194.361 38.1427 195.394 38.1214C196.865 38.1214 198.107 37.9398 199.122 37.5768C200.153 37.1966 200.924 36.663 201.438 35.9759C201.966 35.3104 202.249 34.4827 202.238 33.6328C202.24 32.9783 202.079 32.3335 201.769 31.757C201.456 31.1489 200.923 30.625 200.17 30.1852C199.416 29.7237 198.405 29.3927 197.135 29.1923C196.362 29.0532 195.598 28.8685 194.846 28.6392C194.369 28.4743 194.053 28.2905 193.881 28.0878C193.738 27.8973 193.66 27.665 193.661 27.4265C193.657 27.2609 193.693 27.0968 193.764 26.9475C193.836 26.7983 193.942 26.6681 194.073 26.5676C194.411 26.329 194.82 26.2127 195.233 26.2378C195.613 26.2243 195.99 26.2996 196.336 26.4576C196.611 26.5934 196.871 26.7599 197.109 26.9541C197.311 27.1267 197.533 27.2749 197.77 27.3955C197.832 27.4362 197.896 27.4729 197.962 27.5055C198.035 27.5239 198.109 27.5331 198.184 27.533H201.051C201.134 27.5329 201.216 27.5158 201.293 27.4827C201.369 27.4496 201.437 27.4012 201.494 27.3406C201.557 27.2748 201.604 27.1965 201.634 27.1109C201.663 27.0253 201.674 26.9343 201.666 26.8441C201.621 26.4434 201.469 26.0623 201.225 25.7413C200.885 25.2748 200.464 24.8728 199.983 24.5543C199.378 24.133 198.706 23.816 197.997 23.6164C197.107 23.342 196.179 23.2115 195.248 23.2299C193.903 23.2299 192.772 23.4509 191.856 23.893C191.022 24.2473 190.298 24.8185 189.76 25.5472C189.303 26.1616 189.052 26.9047 189.042 27.6704C189.02 28.4204 189.221 29.1602 189.621 29.7953C190.044 30.3975 190.614 30.8817 191.277 31.2021C192.078 31.5822 192.92 31.8704 193.787 32.061C194.554 32.1834 195.31 32.3684 196.047 32.6142C196.562 32.7974 196.903 32.9903 197.068 33.193C197.239 33.3915 197.328 33.6476 197.317 33.9094C197.325 34.0941 197.28 34.2775 197.189 34.4384C197.098 34.5994 196.964 34.7315 196.801 34.8198C196.404 35.0342 195.956 35.1391 195.504 35.1238C195.116 35.1345 194.73 35.0588 194.374 34.9022C194.081 34.7668 193.804 34.6004 193.546 34.4058C193.325 34.2164 193.085 34.05 192.83 33.9094C192.776 33.8681 192.718 33.8313 192.658 33.7994C192.615 33.7794 192.568 33.77 192.521 33.7719H189.377C189.288 33.775 189.201 33.796 189.12 33.8338C189.039 33.8716 188.967 33.9253 188.908 33.9918C188.837 34.0519 188.782 34.1288 188.748 34.2155C188.714 34.3021 188.703 34.3959 188.714 34.4882C188.766 34.8746 188.908 35.2435 189.128 35.5653C189.443 36.0236 189.838 36.4221 190.293 36.742C190.919 37.1741 191.607 37.5089 192.333 37.7349Z" fill="url(#paint0_linear_109_345)"/>
<defs>
<linearGradient id="paint0_linear_109_345" x1="0.00037735" y1="19.5831" x2="195.474" y2="38.1236" gradientUnits="userSpaceOnUse">
<stop stop-color="#FF06C8"/>
<stop offset="1" stop-color="#00FFF1"/>
</linearGradient>
</defs>
</svg>
