<svg width="1182" height="588" viewBox="0 0 1182 588" fill="none" xmlns="http://www.w3.org/2000/svg">
<g filter="url(#filter0_d_99_1683)">
<g filter="url(#filter1_f_99_1683)">
<path fill-rule="evenodd" clip-rule="evenodd" d="M192.382 97.8242L192.369 97.8406C198.66 102.644 204.11 108.558 208.417 115.36C208.795 115.957 209.163 116.559 209.521 117.166L209.528 117.162C211.326 120.225 212.893 123.419 214.216 126.716L214.189 126.726C215.639 130.408 216.759 134.203 217.54 138.066L217.548 138.064C217.894 139.763 218.173 141.472 218.387 143.189H364.504H365.82L366.711 144.157L392.977 172.689H438.167V178.689H391.661H390.345L389.454 177.721L363.188 149.189H218.864C218.923 150.884 218.918 152.581 218.849 154.278L218.821 154.277C218.698 157.177 218.389 160.079 217.888 162.967C217.524 165.061 217.064 167.128 216.51 169.163L216.538 169.171C213.517 180.301 207.683 190.467 199.597 198.691L199.578 198.673C197.507 200.783 195.29 202.766 192.935 204.603C187.35 208.963 181.164 212.377 174.62 214.772L174.638 214.822C173.719 215.162 172.8 215.502 171.864 215.774C171.538 215.868 171.213 215.97 170.888 216.072L170.886 216.072L170.885 216.073C170.276 216.263 169.666 216.454 169.046 216.6L169.031 216.546C164.196 217.852 159.211 218.621 154.167 218.825V288.121L187.535 314.664L188.667 315.565V317.012V379.856V432.689H430.167V386.766H436.167V435.689V438.689H433.167H273.167V461.189H277.013V467.189H267.167V463.437V461.189V438.689H185.667H182.667V435.689V379.856V318.459L149.299 291.915L148.167 291.014V289.567V218.887C141.406 218.57 134.724 217.228 128.351 214.9L128.382 214.816C126.282 214.052 124.224 213.185 122.212 212.218L122.185 212.275C120.935 211.701 119.732 211.038 118.527 210.373L118.526 210.373L118.526 210.373L118.526 210.373L118.526 210.373L118.526 210.373L118.526 210.373L118.525 210.372L118.524 210.371C118.291 210.243 118.059 210.115 117.826 209.987L117.861 209.926C112.269 206.716 107.122 202.695 102.603 197.95C100.662 195.911 98.8598 193.764 97.203 191.522L97.1474 191.562C96.4703 190.7 95.8616 189.783 95.2495 188.861L95.2491 188.86C95.0185 188.513 94.7875 188.165 94.5522 187.818C93.692 186.553 92.949 185.255 92.2514 183.912C90.7887 181.267 89.5093 178.525 88.422 175.704C86.2564 170.054 84.856 164.14 84.2582 158.119L84.3307 158.112C84.1659 156.453 84.0621 154.784 84.0206 153.107C83.9097 148.62 84.2473 144.165 85.0116 139.802L84.9427 139.79C86.0704 133.39 88.1131 127.185 91.0078 121.367L91.063 121.394C93.5494 116.398 96.6647 111.692 100.365 107.401C101.071 106.581 101.796 105.781 102.538 105L102.5 104.964C108.112 99.0585 114.748 94.2186 122.085 90.6784L122.103 90.7155C125.026 89.3036 128.052 88.1016 131.16 87.1217L131.156 87.1082C131.472 87.0162 131.785 86.9184 132.098 86.8211C132.489 86.6992 132.878 86.5778 133.269 86.4687L135.404 85.9273L135.405 85.9341C137.951 85.3109 140.543 84.8339 143.169 84.5095C150.941 83.5486 158.813 83.95 166.432 85.6877L166.442 85.6477C175.856 87.8161 184.699 91.9672 192.382 97.8242ZM212.808 148.471C213.025 152.946 212.753 157.463 211.976 161.942C209.369 176.969 201.266 190.489 189.243 199.874C177.221 209.258 162.137 213.835 146.927 212.714C131.716 211.594 117.466 204.856 106.948 193.812C96.4299 182.767 90.3957 168.206 90.0188 152.959C89.6419 137.712 94.9494 122.87 104.909 111.319C112.409 102.62 122.144 96.2569 132.959 92.8457L132.959 92.8482C133.169 92.7843 133.377 92.7196 133.583 92.6553L133.86 92.5689C134.339 92.4261 134.819 92.289 135.301 92.1577L136.866 91.7644L136.864 91.7543C139.173 91.1903 141.524 90.7584 143.905 90.4641L143.905 90.4641C151.918 89.4735 160.047 90.0723 167.828 92.2263L167.828 92.2263C168.439 92.3953 169.045 92.5734 169.649 92.7606C176.515 94.9057 182.965 98.237 188.703 102.615L188.715 102.599C194.452 106.978 199.421 112.369 203.347 118.57C203.808 119.297 204.252 120.032 204.68 120.775C205.599 122.378 206.448 124.019 207.225 125.694C209.231 130.039 210.715 134.59 211.658 139.249L211.641 139.253C212.265 142.294 212.655 145.375 212.808 148.471ZM570.167 178.689H823.167V217.689H829.167V175.689V172.689H826.167H570.167V178.689ZM479.505 175.358C479.505 172.202 482.064 169.643 485.221 169.643C488.377 169.643 490.936 172.202 490.936 175.358C490.936 178.515 488.377 181.074 485.221 181.074C482.064 181.074 479.505 178.515 479.505 175.358ZM485.221 168.735C481.562 168.735 478.597 171.7 478.597 175.358C478.597 179.017 481.562 181.982 485.221 181.982C488.879 181.982 491.844 179.017 491.844 175.358C491.844 171.7 488.879 168.735 485.221 168.735ZM442.621 175.358C442.621 172.202 445.18 169.643 448.336 169.643C451.493 169.643 454.052 172.202 454.052 175.358C454.052 178.515 451.493 181.074 448.336 181.074C445.18 181.074 442.621 178.515 442.621 175.358ZM448.336 168.735C444.678 168.735 441.713 171.7 441.713 175.358C441.713 179.017 444.678 181.982 448.336 181.982C451.995 181.982 454.96 179.017 454.96 175.358C454.96 171.7 451.995 168.735 448.336 168.735ZM1028.67 254.503V253.504V238.24V235.975L1030.75 236.86L1053.07 246.326L1073.94 235.848L1076.12 234.758V237.189V250.873V251.766L1075.33 252.192L1053.26 264.169L1052.62 264.511L1051.96 264.234L1029.59 254.888L1028.67 254.503ZM1031.67 252.505L1052.46 261.189L1073.12 249.98V239.62L1053.79 249.318L1053.17 249.63L1052.53 249.359L1031.67 240.506V252.505ZM1028.67 280.474V281.473L1029.59 281.858L1051.96 291.204L1052.62 291.48L1053.26 291.138L1075.33 279.161L1076.12 278.735V277.842V264.158V261.727L1073.94 262.818L1053.07 273.295L1030.75 263.829L1028.67 262.944V265.21V280.474ZM1052.46 288.159L1031.67 279.475V267.476L1052.53 276.328L1053.17 276.599L1053.79 276.288L1073.12 266.589V276.95L1052.46 288.159ZM1028.67 306.842V305.843V290.579V288.313L1030.75 289.198L1053.07 298.665L1073.94 288.187L1076.12 287.097V289.528V303.212V304.105L1075.33 304.53L1053.26 316.507L1052.62 316.85L1051.96 316.573L1029.59 307.227L1028.67 306.842ZM1031.67 304.844L1052.46 313.528L1073.12 302.319V291.959L1053.79 301.657L1053.17 301.968L1052.53 301.697L1031.67 292.845V304.844ZM857.991 503.6L857.006 503.035L834.689 490.227V502.464L812.694 489.846V502.464V503.6L811.708 503.035L789.383 490.227V502.464L767.191 489.728V502.464V503.6L766.205 503.035L743.889 490.227V502.464L721.894 489.846V502.464V503.6L720.908 503.035L698.161 489.98L697.167 489.41L698.16 488.839L720.907 475.756L721.894 475.189V476.327V488.972L743.889 476.327V488.591L766.205 475.756L767.191 475.189V476.327V489.09L789.383 476.327V488.591L811.708 475.756L812.694 475.189V476.327V488.972L834.689 476.327V488.591L857.005 475.756L857.991 475.189V476.327V502.464V503.6ZM856.675 501.327V477.465L835.908 489.409L856.675 501.327ZM811.378 477.464V501.327L790.601 489.409L811.378 477.464ZM765.875 477.465V501.327L745.107 489.409L765.875 477.465ZM720.577 477.465V501.327L699.81 489.409L720.577 477.465ZM466.783 181.528C470.19 181.528 472.952 178.766 472.952 175.358C472.952 171.951 470.19 169.189 466.783 169.189C463.376 169.189 460.614 171.951 460.614 175.358C460.614 178.766 463.376 181.528 466.783 181.528ZM503.666 181.528C507.074 181.528 509.836 178.766 509.836 175.358C509.836 171.951 507.074 169.189 503.666 169.189C500.259 169.189 497.497 171.951 497.497 175.358C497.497 178.766 500.259 181.528 503.666 181.528ZM516.398 175.358C516.398 172.202 518.956 169.643 522.113 169.643C525.269 169.643 527.828 172.202 527.828 175.358C527.828 178.515 525.269 181.074 522.113 181.074C518.956 181.074 516.398 178.515 516.398 175.358ZM522.113 168.735C518.455 168.735 515.489 171.7 515.489 175.358C515.489 179.017 518.455 181.982 522.113 181.982C525.771 181.982 528.737 179.017 528.737 175.358C528.737 171.7 525.771 168.735 522.113 168.735ZM540.551 181.528C543.959 181.528 546.721 178.766 546.721 175.358C546.721 171.951 543.959 169.189 540.551 169.189C537.144 169.189 534.382 171.951 534.382 175.358C534.382 178.766 537.144 181.528 540.551 181.528ZM553.283 175.358C553.283 172.202 555.841 169.643 558.998 169.643C562.154 169.643 564.713 172.202 564.713 175.358C564.713 178.515 562.154 181.074 558.998 181.074C555.841 181.074 553.283 178.515 553.283 175.358ZM558.998 168.735C555.34 168.735 552.374 171.7 552.374 175.358C552.374 179.017 555.34 181.982 558.998 181.982C562.656 181.982 565.621 179.017 565.621 175.358C565.621 171.7 562.656 168.735 558.998 168.735ZM296.706 467.189H286.859V461.189H296.706V467.189ZM316.398 467.189H306.552V461.189H316.398V467.189ZM336.09 467.189H326.244V461.189H336.09V467.189ZM355.782 467.189H345.936V461.189H355.782V467.189ZM375.475 467.189H365.629V461.189H375.475V467.189ZM392.801 467.189H385.321V461.189H394.936L394.966 461.153L395.009 461.189H395.167V461.324L424.374 486.189H690.167V492.189H423.27H422.166L421.325 491.473L392.801 467.189ZM1055.06 356.468V337.189H1061.17C1081.05 337.189 1097.17 321.071 1097.17 301.189V250.189C1097.17 230.307 1081.05 214.189 1061.17 214.189H1042.17C1022.28 214.189 1006.17 230.307 1006.17 250.189V301.189C1006.17 321.071 1022.28 337.189 1042.17 337.189H1049.06V355.082L895.063 486.189H867.667V492.189H896.167H897.271L898.112 491.473L1054.01 358.753L1055.06 357.854V356.468ZM1042.17 220.189C1025.6 220.189 1012.17 233.621 1012.17 250.189V301.189C1012.17 317.758 1025.6 331.189 1042.17 331.189H1061.17C1077.74 331.189 1091.17 317.758 1091.17 301.189V250.189C1091.17 233.621 1077.74 220.189 1061.17 220.189H1042.17ZM933.167 342.189H974.167V347.189H933.167V342.189ZM931.167 340.189H933.167H974.167H976.167V342.189V347.189V349.189H974.167H933.167H931.167V347.189V342.189V340.189ZM974.167 370.189H933.167V375.189H974.167V370.189ZM933.167 368.189H931.167V370.189V375.189V377.189H933.167H974.167H976.167V375.189V370.189V368.189H974.167H933.167ZM933.167 356.189H974.167V361.189H933.167V356.189ZM931.167 354.189H933.167H974.167H976.167V356.189V361.189V363.189H974.167H933.167H931.167V361.189V356.189V354.189ZM974.167 384.189H933.167V389.189H974.167V384.189ZM933.167 382.189H931.167V384.189V389.189V391.189H933.167H974.167H976.167V389.189V384.189V382.189H974.167H933.167ZM151.7 100.845L150.856 99.2261L149.947 100.809L120.529 152.017L119.985 152.963L120.975 153.423L150.684 167.204L151.136 167.414L151.576 167.179L177.866 153.147L178.74 152.68L178.282 151.802L151.7 100.845ZM149.989 140.303L123.676 150.554L149.83 105.026L149.989 140.303ZM151.989 140.324L151.832 105.422L175.214 150.245L151.989 140.324ZM151.999 142.503L175.084 152.364L152.098 164.634L151.999 142.503ZM149.998 142.445L150.098 164.728L123.945 152.596L149.998 142.445ZM121.867 156.217L120.601 157.688L150.437 199.713L151.31 200.942L152.103 199.66L178.266 157.385L176.914 155.993L151.098 170.973L121.867 156.217ZM124.568 159.82L150.134 172.727L150.238 195.978L124.568 159.82ZM152.134 172.684L152.237 195.643L174.465 159.727L152.134 172.684Z" fill="url(#paint0_linear_99_1683)"/>
</g>
<path fill-rule="evenodd" clip-rule="evenodd" d="M192.382 97.8242L192.369 97.8406C198.66 102.644 204.11 108.558 208.417 115.36C208.795 115.957 209.163 116.559 209.521 117.166L209.528 117.162C211.326 120.225 212.893 123.419 214.216 126.716L214.189 126.726C215.639 130.408 216.759 134.203 217.54 138.066L217.548 138.064C217.894 139.763 218.173 141.472 218.387 143.189H364.504H365.82L366.711 144.157L392.977 172.689H438.167V178.689H391.661H390.345L389.454 177.721L363.188 149.189H218.864C218.923 150.884 218.918 152.581 218.849 154.278L218.821 154.277C218.698 157.177 218.389 160.079 217.888 162.967C217.524 165.061 217.064 167.128 216.51 169.163L216.538 169.171C213.517 180.301 207.683 190.467 199.597 198.691L199.578 198.673C197.507 200.783 195.29 202.766 192.935 204.603C187.35 208.963 181.164 212.377 174.62 214.772L174.638 214.822C173.719 215.162 172.8 215.502 171.864 215.774C171.538 215.868 171.213 215.97 170.888 216.072L170.886 216.072L170.885 216.073C170.276 216.263 169.666 216.454 169.046 216.6L169.031 216.546C164.196 217.852 159.211 218.621 154.167 218.825V288.121L187.535 314.664L188.667 315.565V317.012V379.856V432.689H430.167V386.766H436.167V435.689V438.689H433.167H273.167V461.189H277.013V467.189H267.167V463.437V461.189V438.689H185.667H182.667V435.689V379.856V318.459L149.299 291.915L148.167 291.014V289.567V218.887C141.406 218.57 134.724 217.228 128.351 214.9L128.382 214.816C126.282 214.052 124.224 213.185 122.212 212.218L122.185 212.275C120.935 211.701 119.732 211.038 118.527 210.373L118.526 210.373L118.526 210.373L118.526 210.373L118.526 210.373L118.526 210.373L118.526 210.373L118.525 210.372L118.524 210.371C118.291 210.243 118.059 210.115 117.826 209.987L117.861 209.926C112.269 206.716 107.122 202.695 102.603 197.95C100.662 195.911 98.8598 193.764 97.203 191.522L97.1474 191.562C96.4703 190.7 95.8616 189.783 95.2495 188.861L95.2491 188.86C95.0185 188.513 94.7875 188.165 94.5522 187.818C93.692 186.553 92.949 185.255 92.2514 183.912C90.7887 181.267 89.5093 178.525 88.422 175.704C86.2564 170.054 84.856 164.14 84.2582 158.119L84.3307 158.112C84.1659 156.453 84.0621 154.784 84.0206 153.107C83.9097 148.62 84.2473 144.165 85.0116 139.802L84.9427 139.79C86.0704 133.39 88.1131 127.185 91.0078 121.367L91.063 121.394C93.5494 116.398 96.6647 111.692 100.365 107.401C101.071 106.581 101.796 105.781 102.538 105L102.5 104.964C108.112 99.0585 114.748 94.2186 122.085 90.6784L122.103 90.7155C125.026 89.3036 128.052 88.1016 131.16 87.1217L131.156 87.1082C131.472 87.0162 131.785 86.9184 132.098 86.8211C132.489 86.6992 132.878 86.5778 133.269 86.4687L135.404 85.9273L135.405 85.9341C137.951 85.3109 140.543 84.8339 143.169 84.5095C150.941 83.5486 158.813 83.95 166.432 85.6877L166.442 85.6477C175.856 87.8161 184.699 91.9672 192.382 97.8242ZM212.808 148.471C213.025 152.946 212.753 157.463 211.976 161.942C209.369 176.969 201.266 190.489 189.243 199.874C177.221 209.258 162.137 213.835 146.927 212.714C131.716 211.594 117.466 204.856 106.948 193.812C96.4299 182.767 90.3957 168.206 90.0188 152.959C89.6419 137.712 94.9494 122.87 104.909 111.319C112.409 102.62 122.144 96.2569 132.959 92.8457L132.959 92.8482C133.169 92.7843 133.377 92.7196 133.583 92.6553L133.86 92.5689C134.339 92.4261 134.819 92.289 135.301 92.1577L136.866 91.7644L136.864 91.7543C139.173 91.1903 141.524 90.7584 143.905 90.4641L143.905 90.4641C151.918 89.4735 160.047 90.0723 167.828 92.2263L167.828 92.2263C168.439 92.3953 169.045 92.5734 169.649 92.7606C176.515 94.9057 182.965 98.237 188.703 102.615L188.715 102.599C194.452 106.978 199.421 112.369 203.347 118.57C203.808 119.297 204.252 120.032 204.68 120.775C205.599 122.378 206.448 124.019 207.225 125.694C209.231 130.039 210.715 134.59 211.658 139.249L211.641 139.253C212.265 142.294 212.655 145.375 212.808 148.471ZM570.167 178.689H823.167V217.689H829.167V175.689V172.689H826.167H570.167V178.689ZM479.505 175.358C479.505 172.202 482.064 169.643 485.221 169.643C488.377 169.643 490.936 172.202 490.936 175.358C490.936 178.515 488.377 181.074 485.221 181.074C482.064 181.074 479.505 178.515 479.505 175.358ZM485.221 168.735C481.562 168.735 478.597 171.7 478.597 175.358C478.597 179.017 481.562 181.982 485.221 181.982C488.879 181.982 491.844 179.017 491.844 175.358C491.844 171.7 488.879 168.735 485.221 168.735ZM442.621 175.358C442.621 172.202 445.18 169.643 448.336 169.643C451.493 169.643 454.052 172.202 454.052 175.358C454.052 178.515 451.493 181.074 448.336 181.074C445.18 181.074 442.621 178.515 442.621 175.358ZM448.336 168.735C444.678 168.735 441.713 171.7 441.713 175.358C441.713 179.017 444.678 181.982 448.336 181.982C451.995 181.982 454.96 179.017 454.96 175.358C454.96 171.7 451.995 168.735 448.336 168.735ZM1028.67 254.503V253.504V238.24V235.975L1030.75 236.86L1053.07 246.326L1073.94 235.848L1076.12 234.758V237.189V250.873V251.766L1075.33 252.192L1053.26 264.169L1052.62 264.511L1051.96 264.234L1029.59 254.888L1028.67 254.503ZM1031.67 252.505L1052.46 261.189L1073.12 249.98V239.62L1053.79 249.318L1053.17 249.63L1052.53 249.359L1031.67 240.506V252.505ZM1028.67 280.474V281.473L1029.59 281.858L1051.96 291.204L1052.62 291.48L1053.26 291.138L1075.33 279.161L1076.12 278.735V277.842V264.158V261.727L1073.94 262.818L1053.07 273.295L1030.75 263.829L1028.67 262.944V265.21V280.474ZM1052.46 288.159L1031.67 279.475V267.476L1052.53 276.328L1053.17 276.599L1053.79 276.288L1073.12 266.589V276.95L1052.46 288.159ZM1028.67 306.842V305.843V290.579V288.313L1030.75 289.198L1053.07 298.665L1073.94 288.187L1076.12 287.097V289.528V303.212V304.105L1075.33 304.53L1053.26 316.507L1052.62 316.85L1051.96 316.573L1029.59 307.227L1028.67 306.842ZM1031.67 304.844L1052.46 313.528L1073.12 302.319V291.959L1053.79 301.657L1053.17 301.968L1052.53 301.697L1031.67 292.845V304.844ZM857.991 503.6L857.006 503.035L834.689 490.227V502.464L812.694 489.846V502.464V503.6L811.708 503.035L789.383 490.227V502.464L767.191 489.728V502.464V503.6L766.205 503.035L743.889 490.227V502.464L721.894 489.846V502.464V503.6L720.908 503.035L698.161 489.98L697.167 489.41L698.16 488.839L720.907 475.756L721.894 475.189V476.327V488.972L743.889 476.327V488.591L766.205 475.756L767.191 475.189V476.327V489.09L789.383 476.327V488.591L811.708 475.756L812.694 475.189V476.327V488.972L834.689 476.327V488.591L857.005 475.756L857.991 475.189V476.327V502.464V503.6ZM856.675 501.327V477.465L835.908 489.409L856.675 501.327ZM811.378 477.464V501.327L790.601 489.409L811.378 477.464ZM765.875 477.465V501.327L745.107 489.409L765.875 477.465ZM720.577 477.465V501.327L699.81 489.409L720.577 477.465ZM466.783 181.528C470.19 181.528 472.952 178.766 472.952 175.358C472.952 171.951 470.19 169.189 466.783 169.189C463.376 169.189 460.614 171.951 460.614 175.358C460.614 178.766 463.376 181.528 466.783 181.528ZM503.666 181.528C507.074 181.528 509.836 178.766 509.836 175.358C509.836 171.951 507.074 169.189 503.666 169.189C500.259 169.189 497.497 171.951 497.497 175.358C497.497 178.766 500.259 181.528 503.666 181.528ZM516.398 175.358C516.398 172.202 518.956 169.643 522.113 169.643C525.269 169.643 527.828 172.202 527.828 175.358C527.828 178.515 525.269 181.074 522.113 181.074C518.956 181.074 516.398 178.515 516.398 175.358ZM522.113 168.735C518.455 168.735 515.489 171.7 515.489 175.358C515.489 179.017 518.455 181.982 522.113 181.982C525.771 181.982 528.737 179.017 528.737 175.358C528.737 171.7 525.771 168.735 522.113 168.735ZM540.551 181.528C543.959 181.528 546.721 178.766 546.721 175.358C546.721 171.951 543.959 169.189 540.551 169.189C537.144 169.189 534.382 171.951 534.382 175.358C534.382 178.766 537.144 181.528 540.551 181.528ZM553.283 175.358C553.283 172.202 555.841 169.643 558.998 169.643C562.154 169.643 564.713 172.202 564.713 175.358C564.713 178.515 562.154 181.074 558.998 181.074C555.841 181.074 553.283 178.515 553.283 175.358ZM558.998 168.735C555.34 168.735 552.374 171.7 552.374 175.358C552.374 179.017 555.34 181.982 558.998 181.982C562.656 181.982 565.621 179.017 565.621 175.358C565.621 171.7 562.656 168.735 558.998 168.735ZM296.706 467.189H286.859V461.189H296.706V467.189ZM316.398 467.189H306.552V461.189H316.398V467.189ZM336.09 467.189H326.244V461.189H336.09V467.189ZM355.782 467.189H345.936V461.189H355.782V467.189ZM375.475 467.189H365.629V461.189H375.475V467.189ZM392.801 467.189H385.321V461.189H394.936L394.966 461.153L395.009 461.189H395.167V461.324L424.374 486.189H690.167V492.189H423.27H422.166L421.325 491.473L392.801 467.189ZM1055.06 356.468V337.189H1061.17C1081.05 337.189 1097.17 321.071 1097.17 301.189V250.189C1097.17 230.307 1081.05 214.189 1061.17 214.189H1042.17C1022.28 214.189 1006.17 230.307 1006.17 250.189V301.189C1006.17 321.071 1022.28 337.189 1042.17 337.189H1049.06V355.082L895.063 486.189H867.667V492.189H896.167H897.271L898.112 491.473L1054.01 358.753L1055.06 357.854V356.468ZM1042.17 220.189C1025.6 220.189 1012.17 233.621 1012.17 250.189V301.189C1012.17 317.758 1025.6 331.189 1042.17 331.189H1061.17C1077.74 331.189 1091.17 317.758 1091.17 301.189V250.189C1091.17 233.621 1077.74 220.189 1061.17 220.189H1042.17ZM933.167 342.189H974.167V347.189H933.167V342.189ZM931.167 340.189H933.167H974.167H976.167V342.189V347.189V349.189H974.167H933.167H931.167V347.189V342.189V340.189ZM974.167 370.189H933.167V375.189H974.167V370.189ZM933.167 368.189H931.167V370.189V375.189V377.189H933.167H974.167H976.167V375.189V370.189V368.189H974.167H933.167ZM933.167 356.189H974.167V361.189H933.167V356.189ZM931.167 354.189H933.167H974.167H976.167V356.189V361.189V363.189H974.167H933.167H931.167V361.189V356.189V354.189ZM974.167 384.189H933.167V389.189H974.167V384.189ZM933.167 382.189H931.167V384.189V389.189V391.189H933.167H974.167H976.167V389.189V384.189V382.189H974.167H933.167ZM151.7 100.845L150.856 99.2261L149.947 100.809L120.529 152.017L119.985 152.963L120.975 153.423L150.684 167.204L151.136 167.414L151.576 167.179L177.866 153.147L178.74 152.68L178.282 151.802L151.7 100.845ZM149.989 140.303L123.676 150.554L149.83 105.026L149.989 140.303ZM151.989 140.324L151.832 105.422L175.214 150.245L151.989 140.324ZM151.999 142.503L175.084 152.364L152.098 164.634L151.999 142.503ZM149.998 142.445L150.098 164.728L123.945 152.596L149.998 142.445ZM121.867 156.217L120.601 157.688L150.437 199.713L151.31 200.942L152.103 199.66L178.266 157.385L176.914 155.993L151.098 170.973L121.867 156.217ZM124.568 159.82L150.134 172.727L150.238 195.978L124.568 159.82ZM152.134 172.684L152.237 195.643L174.465 159.727L152.134 172.684Z" fill="url(#paint1_linear_99_1683)"/>
<g filter="url(#filter2_d_99_1683)">
<path d="M310.089 240.712H287.408C287.247 238.836 286.818 237.133 286.121 235.605C285.45 234.077 284.512 232.763 283.305 231.664C282.126 230.538 280.691 229.68 279.002 229.09C277.313 228.473 275.396 228.165 273.251 228.165C269.498 228.165 266.321 229.076 263.72 230.9C261.146 232.723 259.189 235.337 257.849 238.742C256.535 242.147 255.878 246.235 255.878 251.008C255.878 256.048 256.548 260.271 257.889 263.676C259.256 267.054 261.227 269.601 263.801 271.317C266.374 273.006 269.471 273.85 273.091 273.85C275.155 273.85 277.005 273.596 278.64 273.086C280.276 272.55 281.697 271.786 282.903 270.794C284.11 269.802 285.088 268.609 285.839 267.215C286.617 265.794 287.139 264.199 287.408 262.429L310.089 262.59C309.821 266.075 308.843 269.628 307.154 273.247C305.465 276.84 303.065 280.164 299.955 283.221C296.872 286.25 293.051 288.69 288.493 290.54C283.936 292.39 278.64 293.315 272.608 293.315C265.047 293.315 258.264 291.693 252.259 288.449C246.28 285.205 241.548 280.432 238.062 274.132C234.604 267.831 232.874 260.123 232.874 251.008C232.874 241.838 234.644 234.117 238.183 227.843C241.722 221.543 246.494 216.784 252.5 213.566C258.505 210.322 265.208 208.7 272.608 208.7C277.809 208.7 282.595 209.411 286.965 210.832C291.335 212.253 295.169 214.331 298.467 217.065C301.765 219.773 304.419 223.111 306.43 227.079C308.441 231.047 309.66 235.591 310.089 240.712ZM407.384 251.008C407.384 260.177 405.601 267.912 402.035 274.212C398.469 280.486 393.657 285.245 387.598 288.489C381.538 291.706 374.782 293.315 367.329 293.315C359.822 293.315 353.039 291.693 346.979 288.449C340.947 285.178 336.148 280.406 332.582 274.132C329.043 267.831 327.273 260.123 327.273 251.008C327.273 241.838 329.043 234.117 332.582 227.843C336.148 221.543 340.947 216.784 346.979 213.566C353.039 210.322 359.822 208.7 367.329 208.7C374.782 208.7 381.538 210.322 387.598 213.566C393.657 216.784 398.469 221.543 402.035 227.843C405.601 234.117 407.384 241.838 407.384 251.008ZM384.38 251.008C384.38 246.074 383.724 241.919 382.41 238.541C381.123 235.136 379.206 232.562 376.659 230.819C374.139 229.05 371.029 228.165 367.329 228.165C363.629 228.165 360.505 229.05 357.958 230.819C355.438 232.562 353.521 235.136 352.207 238.541C350.921 241.919 350.277 246.074 350.277 251.008C350.277 255.941 350.921 260.11 352.207 263.515C353.521 266.893 355.438 269.467 357.958 271.236C360.505 272.979 363.629 273.85 367.329 273.85C371.029 273.85 374.139 272.979 376.659 271.236C379.206 269.467 381.123 266.893 382.41 263.515C383.724 260.11 384.38 255.941 384.38 251.008ZM496.354 209.826V292.189H477.694L447.934 248.916H447.451V292.189H425.091V209.826H444.073L473.35 252.938H473.994V209.826H496.354ZM514.292 292.189V209.826H572.203V227.843H536.652V241.999H568.664V260.016H536.652V292.189H514.292ZM610.149 209.826V292.189H587.789V209.826H610.149ZM628.107 292.189V209.826H663.658C669.771 209.826 675.12 210.939 679.704 213.164C684.289 215.39 687.855 218.593 690.402 222.776C692.949 226.958 694.222 231.972 694.222 237.817C694.222 243.715 692.909 248.689 690.281 252.737C687.68 256.785 684.021 259.842 679.302 261.906C674.61 263.971 669.127 265.003 662.854 265.003H641.62V247.63H658.349C660.977 247.63 663.216 247.308 665.066 246.664C666.942 245.994 668.377 244.935 669.369 243.487C670.387 242.039 670.897 240.149 670.897 237.817C670.897 235.457 670.387 233.54 669.369 232.066C668.377 230.564 666.942 229.465 665.066 228.768C663.216 228.044 660.977 227.682 658.349 227.682H650.467V292.189H628.107ZM676.366 254.386L696.957 292.189H672.666L652.558 254.386H676.366ZM711.115 209.826H738.944L758.087 256.477H759.052L778.195 209.826H806.025V292.189H784.147V244.573H783.504L765.165 291.546H751.974L733.636 244.251H732.992V292.189H711.115V209.826ZM823.983 292.189V209.826H883.342V227.843H846.343V241.999H880.286V260.016H846.343V274.172H883.181V292.189H823.983ZM933.483 292.189H901.793V209.826H933.161C941.634 209.826 948.953 211.475 955.119 214.773C961.313 218.044 966.085 222.762 969.436 228.929C972.815 235.069 974.504 242.428 974.504 251.008C974.504 259.587 972.828 266.96 969.477 273.127C966.125 279.266 961.38 283.985 955.24 287.283C949.1 290.554 941.848 292.189 933.483 292.189ZM924.153 273.207H932.679C936.754 273.207 940.226 272.55 943.095 271.236C945.99 269.923 948.189 267.657 949.69 264.44C951.219 261.223 951.983 256.745 951.983 251.008C951.983 245.27 951.205 240.793 949.65 237.575C948.122 234.358 945.87 232.093 942.894 230.779C939.945 229.465 936.325 228.808 932.035 228.808H924.153V273.207Z" fill="url(#paint2_linear_99_1683)" fill-opacity="0.2" shape-rendering="crispEdges"/>
</g>
<g filter="url(#filter3_d_99_1683)">
<path d="M321.089 248.712H298.408C298.247 246.836 297.818 245.133 297.121 243.605C296.45 242.077 295.512 240.763 294.305 239.664C293.126 238.538 291.691 237.68 290.002 237.09C288.313 236.473 286.396 236.165 284.251 236.165C280.498 236.165 277.321 237.076 274.72 238.9C272.146 240.723 270.189 243.337 268.849 246.742C267.535 250.147 266.878 254.235 266.878 259.008C266.878 264.048 267.548 268.271 268.889 271.676C270.256 275.054 272.227 277.601 274.801 279.317C277.374 281.006 280.471 281.85 284.091 281.85C286.155 281.85 288.005 281.596 289.64 281.086C291.276 280.55 292.697 279.786 293.903 278.794C295.11 277.802 296.088 276.609 296.839 275.215C297.617 273.794 298.139 272.199 298.408 270.429L321.089 270.59C320.821 274.075 319.843 277.628 318.154 281.247C316.465 284.84 314.065 288.164 310.955 291.221C307.872 294.25 304.051 296.69 299.493 298.54C294.936 300.39 289.64 301.315 283.608 301.315C276.047 301.315 269.264 299.693 263.259 296.449C257.28 293.205 252.548 288.432 249.062 282.132C245.604 275.831 243.874 268.123 243.874 259.008C243.874 249.838 245.644 242.117 249.183 235.843C252.722 229.543 257.494 224.784 263.5 221.566C269.505 218.322 276.208 216.7 283.608 216.7C288.809 216.7 293.595 217.411 297.965 218.832C302.335 220.253 306.169 222.331 309.467 225.065C312.765 227.773 315.419 231.111 317.43 235.079C319.441 239.047 320.66 243.591 321.089 248.712ZM418.384 259.008C418.384 268.177 416.601 275.912 413.035 282.212C409.469 288.486 404.657 293.245 398.598 296.489C392.538 299.706 385.782 301.315 378.329 301.315C370.822 301.315 364.039 299.693 357.979 296.449C351.947 293.178 347.148 288.406 343.582 282.132C340.043 275.831 338.273 268.123 338.273 259.008C338.273 249.838 340.043 242.117 343.582 235.843C347.148 229.543 351.947 224.784 357.979 221.566C364.039 218.322 370.822 216.7 378.329 216.7C385.782 216.7 392.538 218.322 398.598 221.566C404.657 224.784 409.469 229.543 413.035 235.843C416.601 242.117 418.384 249.838 418.384 259.008ZM395.38 259.008C395.38 254.074 394.724 249.919 393.41 246.541C392.123 243.136 390.206 240.562 387.659 238.819C385.139 237.05 382.029 236.165 378.329 236.165C374.629 236.165 371.505 237.05 368.958 238.819C366.438 240.562 364.521 243.136 363.207 246.541C361.921 249.919 361.277 254.074 361.277 259.008C361.277 263.941 361.921 268.11 363.207 271.515C364.521 274.893 366.438 277.467 368.958 279.236C371.505 280.979 374.629 281.85 378.329 281.85C382.029 281.85 385.139 280.979 387.659 279.236C390.206 277.467 392.123 274.893 393.41 271.515C394.724 268.11 395.38 263.941 395.38 259.008ZM507.354 217.826V300.189H488.694L458.934 256.916H458.451V300.189H436.091V217.826H455.073L484.35 260.938H484.994V217.826H507.354ZM525.292 300.189V217.826H583.203V235.843H547.652V249.999H579.664V268.016H547.652V300.189H525.292ZM621.149 217.826V300.189H598.789V217.826H621.149ZM639.107 300.189V217.826H674.658C680.771 217.826 686.12 218.939 690.704 221.164C695.289 223.39 698.855 226.593 701.402 230.776C703.949 234.958 705.222 239.972 705.222 245.817C705.222 251.715 703.909 256.689 701.281 260.737C698.68 264.785 695.021 267.842 690.302 269.906C685.61 271.971 680.127 273.003 673.854 273.003H652.62V255.63H669.349C671.977 255.63 674.216 255.308 676.066 254.664C677.942 253.994 679.377 252.935 680.369 251.487C681.387 250.039 681.897 248.149 681.897 245.817C681.897 243.457 681.387 241.54 680.369 240.066C679.377 238.564 677.942 237.465 676.066 236.768C674.216 236.044 671.977 235.682 669.349 235.682H661.467V300.189H639.107ZM687.366 262.386L707.957 300.189H683.666L663.558 262.386H687.366ZM722.115 217.826H749.944L769.087 264.477H770.052L789.195 217.826H817.025V300.189H795.147V252.573H794.504L776.165 299.546H762.974L744.636 252.251H743.992V300.189H722.115V217.826ZM834.983 300.189V217.826H894.342V235.843H857.343V249.999H891.286V268.016H857.343V282.172H894.181V300.189H834.983ZM944.483 300.189H912.793V217.826H944.161C952.634 217.826 959.953 219.475 966.119 222.773C972.313 226.044 977.085 230.762 980.436 236.929C983.815 243.069 985.504 250.428 985.504 259.008C985.504 267.587 983.828 274.96 980.477 281.127C977.125 287.266 972.38 291.985 966.24 295.283C960.1 298.554 952.848 300.189 944.483 300.189ZM935.153 281.207H943.679C947.754 281.207 951.226 280.55 954.095 279.236C956.99 277.923 959.189 275.657 960.69 272.44C962.219 269.223 962.983 264.745 962.983 259.008C962.983 253.27 962.205 248.793 960.65 245.575C959.122 242.358 956.87 240.093 953.894 238.779C950.945 237.465 947.325 236.808 943.035 236.808H935.153V281.207Z" fill="url(#paint3_linear_99_1683)"/>
</g>
<rect x="277.167" y="312.189" width="625" height="75.4969" fill="#AFF9FC" fill-opacity="0.49"/>
<rect x="338.167" y="350.189" width="625" height="75.4969" fill="#B0F8FC" fill-opacity="0.09"/>
<g filter="url(#filter4_df_99_1683)">
<rect x="290.167" y="327.941" width="625" height="75.4969" rx="1" fill="url(#paint4_diamond_99_1683)"/>
</g>
<path d="M319.778 345.566H333.166L342.375 368.009H342.84L352.049 345.566H365.437V385.189H354.912V362.282H354.603L345.78 384.88H339.435L330.612 362.127H330.303V385.189H319.778V345.566ZM384.833 345.566V385.189H374.076V345.566H384.833ZM427.755 345.566V385.189H418.778L404.462 364.372H404.229V385.189H393.472V345.566H402.604L416.689 366.306H416.998V345.566H427.755ZM435.302 354.234V345.566H469.739V354.234H457.822V385.189H447.219V354.234H435.302ZM513.083 357.948C512.98 356.659 512.496 355.653 511.632 354.93C510.781 354.208 509.485 353.847 507.743 353.847C506.634 353.847 505.725 353.982 505.015 354.253C504.319 354.511 503.803 354.866 503.468 355.317C503.132 355.769 502.958 356.285 502.945 356.865C502.919 357.342 503.003 357.774 503.197 358.161C503.403 358.535 503.726 358.877 504.164 359.187C504.603 359.483 505.164 359.754 505.847 359.999C506.531 360.244 507.344 360.464 508.285 360.657L511.535 361.353C513.728 361.818 515.605 362.43 517.165 363.191C518.726 363.952 520.003 364.849 520.996 365.881C521.989 366.9 522.718 368.048 523.182 369.324C523.66 370.601 523.905 371.994 523.917 373.503C523.905 376.109 523.253 378.314 521.963 380.12C520.674 381.926 518.829 383.299 516.43 384.241C514.044 385.183 511.174 385.653 507.821 385.653C504.377 385.653 501.372 385.144 498.805 384.125C496.251 383.106 494.265 381.539 492.846 379.424C491.44 377.295 490.731 374.574 490.718 371.259H500.933C500.998 372.472 501.301 373.491 501.842 374.316C502.384 375.141 503.145 375.767 504.125 376.193C505.119 376.618 506.299 376.831 507.666 376.831C508.814 376.831 509.775 376.689 510.549 376.405C511.323 376.122 511.909 375.728 512.309 375.225C512.709 374.722 512.915 374.148 512.928 373.503C512.915 372.897 512.716 372.368 512.329 371.917C511.955 371.453 511.335 371.04 510.471 370.679C509.607 370.305 508.44 369.956 506.969 369.634L503.023 368.783C499.514 368.022 496.748 366.751 494.723 364.971C492.711 363.179 491.711 360.734 491.724 357.639C491.711 355.124 492.382 352.925 493.736 351.041C495.103 349.145 496.993 347.669 499.405 346.611C501.83 345.553 504.609 345.025 507.743 345.025C510.942 345.025 513.709 345.56 516.043 346.63C518.378 347.701 520.177 349.21 521.441 351.158C522.718 353.092 523.363 355.356 523.376 357.948H513.083ZM554.999 345.566H565.756V370.95C565.756 373.968 565.034 376.58 563.589 378.785C562.158 380.978 560.159 382.674 557.592 383.873C555.025 385.06 552.046 385.653 548.653 385.653C545.235 385.653 542.243 385.06 539.676 383.873C537.11 382.674 535.111 380.978 533.679 378.785C532.26 376.58 531.551 373.968 531.551 370.95V345.566H542.308V370.021C542.308 371.246 542.578 372.343 543.12 373.31C543.662 374.264 544.41 375.013 545.364 375.554C546.332 376.096 547.428 376.367 548.653 376.367C549.892 376.367 550.988 376.096 551.942 375.554C552.897 375.013 553.645 374.264 554.187 373.31C554.728 372.343 554.999 371.246 554.999 370.021V345.566ZM611.402 360.425H600.49C600.412 359.522 600.206 358.703 599.871 357.968C599.548 357.233 599.097 356.601 598.516 356.072C597.949 355.53 597.259 355.117 596.446 354.834C595.634 354.537 594.712 354.389 593.68 354.389C591.874 354.389 590.346 354.827 589.094 355.704C587.856 356.581 586.915 357.839 586.27 359.477C585.638 361.115 585.322 363.082 585.322 365.378C585.322 367.802 585.644 369.834 586.289 371.472C586.947 373.097 587.895 374.322 589.133 375.148C590.371 375.961 591.861 376.367 593.602 376.367C594.595 376.367 595.485 376.244 596.272 375.999C597.059 375.741 597.743 375.374 598.323 374.896C598.903 374.419 599.374 373.845 599.735 373.175C600.109 372.491 600.361 371.724 600.49 370.872L611.402 370.95C611.273 372.626 610.802 374.335 609.989 376.077C609.177 377.805 608.022 379.404 606.526 380.875C605.043 382.332 603.205 383.506 601.012 384.396C598.82 385.286 596.272 385.731 593.37 385.731C589.733 385.731 586.47 384.95 583.581 383.39C580.704 381.829 578.428 379.533 576.751 376.502C575.087 373.471 574.255 369.763 574.255 365.378C574.255 360.967 575.107 357.252 576.809 354.234C578.512 351.203 580.807 348.913 583.697 347.366C586.586 345.805 589.81 345.025 593.37 345.025C595.872 345.025 598.175 345.366 600.277 346.05C602.379 346.734 604.224 347.733 605.81 349.049C607.397 350.351 608.674 351.957 609.641 353.866C610.608 355.775 611.195 357.961 611.402 360.425ZM656.815 360.425H645.903C645.826 359.522 645.619 358.703 645.284 357.968C644.961 357.233 644.51 356.601 643.93 356.072C643.362 355.53 642.672 355.117 641.859 354.834C641.047 354.537 640.125 354.389 639.093 354.389C637.287 354.389 635.759 354.827 634.508 355.704C633.269 356.581 632.328 357.839 631.683 359.477C631.051 361.115 630.735 363.082 630.735 365.378C630.735 367.802 631.057 369.834 631.702 371.472C632.36 373.097 633.308 374.322 634.546 375.148C635.784 375.961 637.274 376.367 639.015 376.367C640.009 376.367 640.899 376.244 641.685 375.999C642.472 375.741 643.156 375.374 643.736 374.896C644.317 374.419 644.787 373.845 645.148 373.175C645.523 372.491 645.774 371.724 645.903 370.872L656.815 370.95C656.686 372.626 656.215 374.335 655.402 376.077C654.59 377.805 653.435 379.404 651.939 380.875C650.456 382.332 648.618 383.506 646.425 384.396C644.233 385.286 641.685 385.731 638.783 385.731C635.146 385.731 631.883 384.95 628.994 383.39C626.117 381.829 623.841 379.533 622.164 376.502C620.5 373.471 619.668 369.763 619.668 365.378C619.668 360.967 620.52 357.252 622.222 354.234C623.925 351.203 626.221 348.913 629.11 347.366C631.999 345.805 635.223 345.025 638.783 345.025C641.285 345.025 643.588 345.366 645.69 346.05C647.793 346.734 649.637 347.733 651.223 349.049C652.81 350.351 654.087 351.957 655.054 353.866C656.022 355.775 656.608 357.961 656.815 360.425ZM665.236 385.189V345.566H693.793V354.234H675.993V361.044H692.322V369.711H675.993V376.522H693.715V385.189H665.236ZM724.028 357.948C723.925 356.659 723.441 355.653 722.577 354.93C721.726 354.208 720.429 353.847 718.688 353.847C717.579 353.847 716.67 353.982 715.96 354.253C715.264 354.511 714.748 354.866 714.412 355.317C714.077 355.769 713.903 356.285 713.89 356.865C713.864 357.342 713.948 357.774 714.142 358.161C714.348 358.535 714.67 358.877 715.109 359.187C715.548 359.483 716.109 359.754 716.792 359.999C717.476 360.244 718.288 360.464 719.23 360.657L722.48 361.353C724.673 361.818 726.55 362.43 728.11 363.191C729.671 363.952 730.948 364.849 731.941 365.881C732.934 366.9 733.663 368.048 734.127 369.324C734.604 370.601 734.849 371.994 734.862 373.503C734.849 376.109 734.198 378.314 732.908 380.12C731.618 381.926 729.774 383.299 727.375 384.241C724.989 385.183 722.119 385.653 718.766 385.653C715.322 385.653 712.317 385.144 709.75 384.125C707.196 383.106 705.21 381.539 703.791 379.424C702.385 377.295 701.676 374.574 701.663 371.259H711.878C711.943 372.472 712.246 373.491 712.787 374.316C713.329 375.141 714.09 375.767 715.07 376.193C716.063 376.618 717.244 376.831 718.611 376.831C719.759 376.831 720.72 376.689 721.494 376.405C722.267 376.122 722.854 375.728 723.254 375.225C723.654 374.722 723.86 374.148 723.873 373.503C723.86 372.897 723.66 372.368 723.273 371.917C722.899 371.453 722.28 371.04 721.416 370.679C720.552 370.305 719.385 369.956 717.914 369.634L713.968 368.783C710.459 368.022 707.693 366.751 705.668 364.971C703.656 363.179 702.656 360.734 702.669 357.639C702.656 355.124 703.327 352.925 704.681 351.041C706.048 349.145 707.938 347.669 710.35 346.611C712.774 345.553 715.554 345.025 718.688 345.025C721.887 345.025 724.654 345.56 726.988 346.63C729.323 347.701 731.122 349.21 732.386 351.158C733.663 353.092 734.308 355.356 734.321 357.948H724.028ZM763.855 357.948C763.751 356.659 763.268 355.653 762.404 354.93C761.552 354.208 760.256 353.847 758.515 353.847C757.406 353.847 756.496 353.982 755.787 354.253C755.09 354.511 754.575 354.866 754.239 355.317C753.904 355.769 753.73 356.285 753.717 356.865C753.691 357.342 753.775 357.774 753.968 358.161C754.175 358.535 754.497 358.877 754.936 359.187C755.374 359.483 755.935 359.754 756.619 359.999C757.302 360.244 758.115 360.464 759.057 360.657L762.307 361.353C764.5 361.818 766.376 362.43 767.937 363.191C769.498 363.952 770.774 364.849 771.768 365.881C772.761 366.9 773.49 368.048 773.954 369.324C774.431 370.601 774.676 371.994 774.689 373.503C774.676 376.109 774.025 378.314 772.735 380.12C771.445 381.926 769.601 383.299 767.202 384.241C764.816 385.183 761.946 385.653 758.592 385.653C755.148 385.653 752.143 385.144 749.577 384.125C747.023 383.106 745.036 381.539 743.618 379.424C742.212 377.295 741.502 374.574 741.489 371.259H751.705C751.769 372.472 752.072 373.491 752.614 374.316C753.156 375.141 753.917 375.767 754.897 376.193C755.89 376.618 757.07 376.831 758.438 376.831C759.585 376.831 760.546 376.689 761.32 376.405C762.094 376.122 762.681 375.728 763.081 375.225C763.481 374.722 763.687 374.148 763.7 373.503C763.687 372.897 763.487 372.368 763.1 371.917C762.726 371.453 762.107 371.04 761.243 370.679C760.379 370.305 759.211 369.956 757.741 369.634L753.794 368.783C750.286 368.022 747.519 366.751 745.494 364.971C743.482 363.179 742.483 360.734 742.496 357.639C742.483 355.124 743.153 352.925 744.508 351.041C745.875 349.145 747.764 347.669 750.176 346.611C752.601 345.553 755.381 345.025 758.515 345.025C761.714 345.025 764.48 345.56 766.815 346.63C769.149 347.701 770.949 349.21 772.213 351.158C773.49 353.092 774.134 355.356 774.147 357.948H763.855ZM782.322 385.189V345.566H810.182V354.234H793.079V361.044H808.479V369.711H793.079V385.189H782.322ZM841.128 345.566H851.885V370.95C851.885 373.968 851.163 376.58 849.718 378.785C848.287 380.978 846.288 382.674 843.721 383.873C841.154 385.06 838.175 385.653 834.783 385.653C831.365 385.653 828.372 385.06 825.805 383.873C823.239 382.674 821.24 380.978 819.808 378.785C818.389 376.58 817.68 373.968 817.68 370.95V345.566H828.437V370.021C828.437 371.246 828.708 372.343 829.249 373.31C829.791 374.264 830.539 375.013 831.494 375.554C832.461 376.096 833.557 376.367 834.783 376.367C836.021 376.367 837.117 376.096 838.072 375.554C839.026 375.013 839.774 374.264 840.316 373.31C840.858 372.343 841.128 371.246 841.128 370.021V345.566ZM860.539 385.189V345.566H871.296V376.522H887.315V385.189H860.539Z" fill="white"/>
</g>
<defs>
<filter id="filter0_d_99_1683" x="0" y="0" width="1181.17" height="587.6" filterUnits="userSpaceOnUse" color-interpolation-filters="sRGB">
<feFlood flood-opacity="0" result="BackgroundImageFix"/>
<feColorMatrix in="SourceAlpha" type="matrix" values="0 0 0 0 0 0 0 0 0 0 0 0 0 0 0 0 0 0 127 0" result="hardAlpha"/>
<feOffset/>
<feGaussianBlur stdDeviation="42"/>
<feComposite in2="hardAlpha" operator="out"/>
<feColorMatrix type="matrix" values="0 0 0 0 1 0 0 0 0 0.0235294 0 0 0 0 0.784314 0 0 0 0.28 0"/>
<feBlend mode="normal" in2="BackgroundImageFix" result="effect1_dropShadow_99_1683"/>
<feBlend mode="normal" in="SourceGraphic" in2="effect1_dropShadow_99_1683" result="shape"/>
</filter>
<filter id="filter1_f_99_1683" x="65" y="65" width="1051.17" height="457.6" filterUnits="userSpaceOnUse" color-interpolation-filters="sRGB">
<feFlood flood-opacity="0" result="BackgroundImageFix"/>
<feBlend mode="normal" in="SourceGraphic" in2="BackgroundImageFix" result="shape"/>
<feGaussianBlur stdDeviation="9.5" result="effect1_foregroundBlur_99_1683"/>
</filter>
<filter id="filter2_d_99_1683" x="199.289" y="175.115" width="808.8" height="151.785" filterUnits="userSpaceOnUse" color-interpolation-filters="sRGB">
<feFlood flood-opacity="0" result="BackgroundImageFix"/>
<feColorMatrix in="SourceAlpha" type="matrix" values="0 0 0 0 0 0 0 0 0 0 0 0 0 0 0 0 0 0 127 0" result="hardAlpha"/>
<feOffset/>
<feGaussianBlur stdDeviation="16.7925"/>
<feComposite in2="hardAlpha" operator="out"/>
<feColorMatrix type="matrix" values="0 0 0 0 0 0 0 0 0 1 0 0 0 0 0.945098 0 0 0 0.26 0"/>
<feBlend mode="normal" in2="BackgroundImageFix" result="effect1_dropShadow_99_1683"/>
<feBlend mode="normal" in="SourceGraphic" in2="effect1_dropShadow_99_1683" result="shape"/>
</filter>
<filter id="filter3_d_99_1683" x="210.289" y="183.115" width="808.8" height="151.785" filterUnits="userSpaceOnUse" color-interpolation-filters="sRGB">
<feFlood flood-opacity="0" result="BackgroundImageFix"/>
<feColorMatrix in="SourceAlpha" type="matrix" values="0 0 0 0 0 0 0 0 0 0 0 0 0 0 0 0 0 0 127 0" result="hardAlpha"/>
<feOffset/>
<feGaussianBlur stdDeviation="16.7925"/>
<feComposite in2="hardAlpha" operator="out"/>
<feColorMatrix type="matrix" values="0 0 0 0 0 0 0 0 0 1 0 0 0 0 0.945098 0 0 0 0.26 0"/>
<feBlend mode="normal" in2="BackgroundImageFix" result="effect1_dropShadow_99_1683"/>
<feBlend mode="normal" in="SourceGraphic" in2="effect1_dropShadow_99_1683" result="shape"/>
</filter>
<filter id="filter4_df_99_1683" x="210.167" y="247.941" width="785" height="235.497" filterUnits="userSpaceOnUse" color-interpolation-filters="sRGB">
<feFlood flood-opacity="0" result="BackgroundImageFix"/>
<feColorMatrix in="SourceAlpha" type="matrix" values="0 0 0 0 0 0 0 0 0 0 0 0 0 0 0 0 0 0 127 0" result="hardAlpha"/>
<feMorphology radius="4" operator="erode" in="SourceAlpha" result="effect1_dropShadow_99_1683"/>
<feOffset/>
<feGaussianBlur stdDeviation="42"/>
<feComposite in2="hardAlpha" operator="out"/>
<feColorMatrix type="matrix" values="0 0 0 0 0.690196 0 0 0 0 0.976471 0 0 0 0 0.992157 0 0 0 1 0"/>
<feBlend mode="normal" in2="BackgroundImageFix" result="effect1_dropShadow_99_1683"/>
<feBlend mode="normal" in="SourceGraphic" in2="effect1_dropShadow_99_1683" result="shape"/>
<feGaussianBlur stdDeviation="0.5" result="effect2_foregroundBlur_99_1683"/>
</filter>
<linearGradient id="paint0_linear_99_1683" x1="102.611" y1="92.0035" x2="859.535" y2="734.933" gradientUnits="userSpaceOnUse">
<stop stop-color="#FF06C8"/>
<stop offset="1" stop-color="#5DDEFF"/>
</linearGradient>
<linearGradient id="paint1_linear_99_1683" x1="102.611" y1="92.0035" x2="859.535" y2="734.933" gradientUnits="userSpaceOnUse">
<stop stop-color="#FF06C8"/>
<stop offset="1" stop-color="#5DDEFF"/>
</linearGradient>
<linearGradient id="paint2_linear_99_1683" x1="-10.7493" y1="142.476" x2="1069.27" y2="721.006" gradientUnits="userSpaceOnUse">
<stop stop-color="#00FFF1"/>
<stop offset="1" stop-color="#FF06C8"/>
</linearGradient>
<linearGradient id="paint3_linear_99_1683" x1="0.250696" y1="150.476" x2="1080.27" y2="729.006" gradientUnits="userSpaceOnUse">
<stop stop-color="#00FFF1"/>
<stop offset="1" stop-color="#FF06C8"/>
</linearGradient>
<radialGradient id="paint4_diamond_99_1683" cx="0" cy="0" r="1" gradientUnits="userSpaceOnUse" gradientTransform="translate(601.227 364.517) rotate(29.3166) scale(1494.32 659.332)">
<stop stop-color="#B0F9FB"/>
<stop offset="1" stop-color="#319ED4"/>
</radialGradient>
</defs>
</svg>
