<svg width="872" height="425" viewBox="0 0 872 425" fill="none" xmlns="http://www.w3.org/2000/svg">
<path d="M851.527 196.632L869.876 164.658L833.138 164.658L851.527 196.632Z" stroke="#5DDEFF" stroke-width="1.31632" stroke-miterlimit="10"/>
<path d="M851.527 228.473L869.876 196.487L833.138 196.487L851.527 228.473Z" fill="#5DDEFF"/>
<path d="M851.527 260.315L869.876 228.329L833.138 228.329L851.527 260.315Z" stroke="#5DDEFF" stroke-width="1.31632" stroke-miterlimit="10"/>
<path d="M851.527 292.144L869.876 260.17L833.138 260.17L851.527 292.144Z" fill="#5DDEFF"/>
<path d="M702.808 393H691.143L684 408.489L693.154 423.773H703.612L695.366 408.889L702.808 393Z" stroke="#5DDEFF" stroke-miterlimit="10"/>
<path d="M722.197 393H710.531L703.389 408.489L712.542 423.773H723L714.755 408.889L722.197 393Z" stroke="#5DDEFF" stroke-opacity="0.75" stroke-miterlimit="10"/>
<path d="M742.808 393H731.143L724 408.489L733.154 423.773H743.612L735.366 408.889L742.808 393Z" stroke="#5DDEFF" stroke-opacity="0.5" stroke-miterlimit="10"/>
<path d="M204.373 415.694C208.445 415.694 211.746 412.393 211.746 408.321C211.746 404.249 208.445 400.948 204.373 400.948C200.301 400.948 197 404.249 197 408.321C197 412.393 200.301 415.694 204.373 415.694Z" stroke="#5DDEFF" stroke-width="0.908449" stroke-miterlimit="10"/>
<path d="M226.419 415.694C230.491 415.694 233.792 412.393 233.792 408.321C233.792 404.249 230.491 400.948 226.419 400.948C222.347 400.948 219.046 404.249 219.046 408.321C219.046 412.393 222.347 415.694 226.419 415.694Z" fill="#5DDEFF"/>
<path d="M248.455 415.694C252.527 415.694 255.828 412.393 255.828 408.321C255.828 404.249 252.527 400.948 248.455 400.948C244.383 400.948 241.082 404.249 241.082 408.321C241.082 412.393 244.383 415.694 248.455 415.694Z" stroke="#5DDEFF" stroke-width="0.908449" stroke-miterlimit="10"/>
<path d="M270.499 415.694C274.571 415.694 277.872 412.393 277.872 408.321C277.872 404.249 274.571 400.948 270.499 400.948C266.427 400.948 263.126 404.249 263.126 408.321C263.126 412.393 266.427 415.694 270.499 415.694Z" fill="#5DDEFF"/>
<path d="M292.545 415.694C296.617 415.694 299.918 412.393 299.918 408.321C299.918 404.249 296.617 400.948 292.545 400.948C288.473 400.948 285.172 404.249 285.172 408.321C285.172 412.393 288.473 415.694 292.545 415.694Z" stroke="#5DDEFF" stroke-width="0.908449" stroke-miterlimit="10"/>
<path d="M314.581 415.694C318.653 415.694 321.954 412.393 321.954 408.321C321.954 404.249 318.653 400.948 314.581 400.948C310.509 400.948 307.208 404.249 307.208 408.321C307.208 412.393 310.509 415.694 314.581 415.694Z" fill="#5DDEFF"/>
<path d="M336.627 415.694C340.699 415.694 344 412.393 344 408.321C344 404.249 340.699 400.948 336.627 400.948C332.555 400.948 329.254 404.249 329.254 408.321C329.254 412.393 332.555 415.694 336.627 415.694Z" stroke="#5DDEFF" stroke-width="0.908449" stroke-miterlimit="10"/>
<path d="M103.5 3H36C17.7746 3 3 17.7746 3 36V225.5V292.362C3 301.683 6.9417 310.569 13.8512 316.825L104.571 398.963C110.639 404.457 118.533 407.5 126.72 407.5H187M381.5 3H732.317C740.481 3 748.356 6.02632 754.418 11.4941L841.101 89.6707C848.039 95.9281 852 104.833 852 114.177V157M750 407.5H819C837.225 407.5 852 392.725 852 374.5V296.5" stroke="#FF06C8" stroke-width="6"/>
<path d="M112 3H323" stroke="#FF06C8" stroke-width="6" stroke-dasharray="10 10"/>
<path d="M350 408L675 408" stroke="#FF06C8" stroke-width="6" stroke-dasharray="10 10"/>
</svg>
