<svg width="525" height="91" viewBox="0 0 525 91" fill="none" xmlns="http://www.w3.org/2000/svg">
<path fill-rule="evenodd" clip-rule="evenodd" d="M77.4738 89.6833L79.768 91L79.768 88.3547L79.768 46.72L152.345 88.3547L152.345 47.6079L225.66 89.6833L227.954 91L227.954 88.3548L227.954 46.3342L301.174 88.3548L301.174 47.6076L374.52 89.6835L376.814 90.9994L376.814 88.3548L376.814 46.7201L449.391 88.3548L449.391 47.6079L522.706 89.6833L525 91L525 88.3548L525 2.84995L525 0.201889L522.705 1.52209L449.391 43.6873L449.391 2.84994L376.814 44.5742L376.814 2.84994L376.814 0.202425L374.518 1.52195L301.174 43.6876L301.174 2.84993L227.954 44.9609L227.954 2.84993L227.954 0.201871L225.659 1.52208L152.345 43.6873L152.345 2.84991L79.768 44.5742L79.768 2.84991L79.768 0.201858L77.4725 1.52206L3.05793 44.3204L0.746647 45.6497L3.05915 46.9768L77.4738 89.6833ZM76.7044 5.49797L76.7044 85.7095L6.89655 45.6468L76.7044 5.49797ZM224.891 5.49798L224.891 85.7095L155.083 45.6468L224.891 5.49798ZM521.936 85.7095L521.936 5.498L452.129 45.6469L521.936 85.7095ZM373.75 5.49745L373.75 85.7101L303.913 45.6469L373.75 5.49745Z" fill="url(#paint0_linear_109_575)" fill-opacity="0.5"/>
<defs>
<linearGradient id="paint0_linear_109_575" x1="515" y1="131.602" x2="53" y2="-58.3978" gradientUnits="userSpaceOnUse">
<stop stop-color="#00FFF1"/>
<stop offset="1" stop-color="#FF06C8"/>
</linearGradient>
</defs>
</svg>
