<svg width="1014" height="420" viewBox="0 0 1014 420" fill="none" xmlns="http://www.w3.org/2000/svg">
<path fill-rule="evenodd" clip-rule="evenodd" d="M108.382 13.8242L108.369 13.8406C114.66 18.6445 120.11 24.5584 124.417 31.3596C124.795 31.9567 125.163 32.5589 125.521 33.1659L125.528 33.1621C127.326 36.2253 128.893 39.4187 130.216 42.7156L130.189 42.7263C131.639 46.4077 132.759 50.2027 133.54 54.0659L133.548 54.0643C133.894 55.7625 134.173 57.472 134.387 59.189H280.504H281.82L282.711 60.1572L308.977 88.689H354.167V94.689H307.661H306.345L305.454 93.7209L279.188 65.189H134.864C134.923 66.8837 134.918 68.5813 134.849 70.2782L134.821 70.2771C134.698 73.1766 134.389 76.0792 133.888 78.9674C133.524 81.0612 133.064 83.1284 132.51 85.1631L132.538 85.1707C129.517 96.3013 123.683 106.467 115.597 114.691L115.578 114.673C113.507 116.783 111.29 118.766 108.935 120.603C103.35 124.963 97.1638 128.377 90.6197 130.772L90.638 130.822C89.7191 131.162 88.8002 131.502 87.8638 131.774C87.538 131.868 87.213 131.97 86.8875 132.072L86.8863 132.072L86.8851 132.073C86.2761 132.263 85.6656 132.454 85.046 132.6L85.0315 132.546C80.1959 133.852 75.2108 134.621 70.167 134.825V204.121L103.535 230.664L104.667 231.565V233.012V295.856V348.689H346.167V302.766H352.167V351.689V354.689H349.167H189.167V377.189H193.013V383.189H183.167V379.437V377.189V354.689H101.667H98.667V351.689V295.856V234.459L65.2994 207.915L64.167 207.014V205.567V134.887C57.4057 134.57 50.7237 133.228 44.3511 130.9L44.3817 130.816C42.2825 130.052 40.2235 129.185 38.2124 128.218L38.1851 128.275C36.9353 127.701 35.7324 127.038 34.5266 126.373L34.5264 126.373L34.5262 126.373L34.5261 126.373L34.5259 126.373L34.5257 126.373L34.5255 126.373L34.5253 126.372L34.5235 126.371C34.2911 126.243 34.0586 126.115 33.8256 125.987L33.8608 125.926C28.2689 122.716 23.1222 118.695 18.6032 113.95C16.6619 111.911 14.8598 109.764 13.203 107.522L13.1474 107.562C12.4703 106.7 11.8616 105.783 11.2495 104.861L11.2491 104.86C11.0185 104.513 10.7875 104.165 10.5522 103.818C9.69203 102.553 8.94902 101.255 8.25143 99.9121C6.78873 97.2671 5.50926 94.5247 4.42204 91.7044C2.25637 86.0543 0.856015 80.1401 0.258183 74.1188L0.330734 74.1123C0.16587 72.4535 0.0620641 70.784 0.0206116 69.107C-0.0903009 64.6199 0.24731 60.1647 1.01161 55.8025L0.942704 55.7905C2.07041 49.3901 4.11306 43.1853 7.00785 37.3666L7.06303 37.394C9.54936 32.3976 12.6647 27.6922 16.365 23.4007C17.0715 22.5814 17.7961 21.7809 18.5379 20.9997L18.5002 20.9639C24.1124 15.0585 30.7478 10.2186 38.0852 6.67843L38.1031 6.71553C41.0256 5.30358 44.0521 4.10157 47.1598 3.12166L47.1555 3.10822C47.4717 3.01616 47.7853 2.91844 48.0978 2.82106C48.489 2.69916 48.8785 2.57779 49.2693 2.46868L51.4036 1.92734L51.4053 1.93409C53.9514 1.31089 56.5432 0.833928 59.1688 0.509464C66.9407 -0.451425 74.8125 -0.0500186 82.4322 1.68771L82.4416 1.64765C91.8558 3.81607 100.699 7.96715 108.382 13.8242ZM128.808 64.4706C129.025 68.9464 128.753 73.4633 127.976 77.9418C125.369 92.969 117.266 106.489 105.243 115.874C93.2205 125.258 78.1371 129.835 62.9267 128.714C47.7162 127.594 33.4662 120.856 22.9481 109.812C12.4299 98.7672 6.39565 84.2057 6.01878 68.9587C5.64191 53.7117 10.9494 38.8695 20.909 27.3189C28.4093 18.6204 38.144 12.2569 48.9587 8.84567L48.9595 8.84817C49.1691 8.78426 49.3765 8.71957 49.5827 8.65531L49.8603 8.56889C50.3385 8.42608 50.8188 8.28901 51.301 8.15774L52.866 7.76442L52.8635 7.75434C55.173 7.19035 57.5236 6.75841 59.9049 6.46415L59.9051 6.46412C67.9177 5.47347 76.047 6.07228 83.8279 8.22626L83.8281 8.22632C84.4386 8.39526 85.0455 8.57338 85.6487 8.76056C92.5145 10.9057 98.9651 14.237 104.703 18.615L104.715 18.5994C110.452 22.9776 115.421 28.3689 119.347 34.5696C119.808 35.2967 120.252 36.032 120.68 36.7749C121.599 38.3778 122.448 40.019 123.225 41.6939C125.231 46.0395 126.715 50.5898 127.658 55.2492L127.641 55.2526C128.265 58.2937 128.655 61.3754 128.808 64.4706ZM486.167 94.689H739.167V133.689H745.167V91.689V88.689H742.167H486.167V94.689ZM395.505 91.3585C395.505 88.202 398.064 85.6432 401.221 85.6432C404.377 85.6432 406.936 88.202 406.936 91.3585C406.936 94.5149 404.377 97.0737 401.221 97.0737C398.064 97.0737 395.505 94.5149 395.505 91.3585ZM401.221 84.7348C397.562 84.7348 394.597 87.7003 394.597 91.3585C394.597 95.0166 397.562 97.9821 401.221 97.9821C404.879 97.9821 407.844 95.0166 407.844 91.3585C407.844 87.7003 404.879 84.7348 401.221 84.7348ZM358.621 91.3585C358.621 88.2021 361.18 85.6433 364.336 85.6433C367.493 85.6433 370.052 88.2021 370.052 91.3585C370.052 94.5149 367.493 97.0737 364.336 97.0737C361.18 97.0737 358.621 94.5149 358.621 91.3585ZM364.336 84.7348C360.678 84.7348 357.713 87.7003 357.713 91.3585C357.713 95.0166 360.678 97.9821 364.336 97.9821C367.995 97.9821 370.96 95.0166 370.96 91.3585C370.96 87.7003 367.995 84.7348 364.336 84.7348ZM944.667 170.503V169.504V154.24V151.975L946.753 152.86L969.065 162.326L989.944 151.848L992.117 150.758V153.189V166.873V167.766L991.332 168.192L969.256 180.169L968.625 180.511L967.962 180.234L945.589 170.888L944.667 170.503ZM947.667 168.505L968.456 177.189L989.117 165.98V155.62L969.791 165.318L969.171 165.63L968.532 165.359L947.667 156.506V168.505ZM944.667 196.474V197.473L945.589 197.858L967.962 207.204L968.625 207.48L969.256 207.138L991.332 195.161L992.117 194.735V193.842V180.158V177.727L989.944 178.818L969.065 189.295L946.753 179.829L944.667 178.944V181.21V196.474ZM968.456 204.159L947.667 195.475V183.476L968.532 192.328L969.171 192.599L969.791 192.288L989.117 182.589V192.95L968.456 204.159ZM944.667 222.842V221.843V206.579V204.313L946.753 205.198L969.065 214.665L989.944 204.187L992.117 203.097V205.528V219.212V220.105L991.332 220.53L969.256 232.507L968.625 232.85L967.962 232.573L945.589 223.227L944.667 222.842ZM947.667 220.844L968.456 229.528L989.117 218.319V207.959L969.791 217.657L969.171 217.968L968.532 217.697L947.667 208.845V220.844ZM773.991 419.6L773.006 419.035L750.689 406.227V418.464L728.694 405.846V418.464V419.6L727.708 419.035L705.383 406.227V418.464L683.191 405.728V418.464V419.6L682.205 419.035L659.889 406.227V418.464L637.894 405.846V418.464V419.6L636.908 419.035L614.161 405.98L613.167 405.41L614.16 404.839L636.907 391.756L637.894 391.189V392.327V404.972L659.889 392.327V404.591L682.205 391.756L683.191 391.189V392.327V405.09L705.383 392.327V404.591L727.708 391.756L728.694 391.189V392.327V404.972L750.689 392.327V404.591L773.005 391.756L773.991 391.189V392.327V418.464V419.6ZM772.675 417.327V393.465L751.908 405.409L772.675 417.327ZM727.378 393.464V417.327L706.601 405.409L727.378 393.464ZM681.875 393.465V417.327L661.107 405.409L681.875 393.465ZM636.577 393.465V417.327L615.81 405.409L636.577 393.465ZM382.783 97.5279C386.19 97.5279 388.952 94.7657 388.952 91.3585C388.952 87.9512 386.19 85.189 382.783 85.189C379.376 85.189 376.614 87.9512 376.614 91.3585C376.614 94.7657 379.376 97.5279 382.783 97.5279ZM419.666 97.5279C423.074 97.5279 425.836 94.7657 425.836 91.3585C425.836 87.9512 423.074 85.189 419.666 85.189C416.259 85.189 413.497 87.9512 413.497 91.3585C413.497 94.7657 416.259 97.5279 419.666 97.5279ZM432.398 91.3585C432.398 88.202 434.956 85.6432 438.113 85.6432C441.269 85.6432 443.828 88.202 443.828 91.3585C443.828 94.5149 441.269 97.0737 438.113 97.0737C434.956 97.0737 432.398 94.5149 432.398 91.3585ZM438.113 84.7348C434.455 84.7348 431.489 87.7003 431.489 91.3585C431.489 95.0166 434.455 97.9821 438.113 97.9821C441.771 97.9821 444.737 95.0166 444.737 91.3585C444.737 87.7003 441.771 84.7348 438.113 84.7348ZM456.551 97.5279C459.959 97.5279 462.721 94.7657 462.721 91.3585C462.721 87.9512 459.959 85.189 456.551 85.189C453.144 85.189 450.382 87.9512 450.382 91.3585C450.382 94.7657 453.144 97.5279 456.551 97.5279ZM469.283 91.3585C469.283 88.202 471.841 85.6432 474.998 85.6432C478.154 85.6432 480.713 88.202 480.713 91.3585C480.713 94.5149 478.154 97.0737 474.998 97.0737C471.841 97.0737 469.283 94.5149 469.283 91.3585ZM474.998 84.7348C471.34 84.7348 468.374 87.7003 468.374 91.3585C468.374 95.0166 471.34 97.9821 474.998 97.9821C478.656 97.9821 481.621 95.0166 481.621 91.3585C481.621 87.7003 478.656 84.7348 474.998 84.7348ZM212.706 383.189H202.859V377.189H212.706V383.189ZM232.398 383.189H222.552V377.189H232.398V383.189ZM252.09 383.189H242.244V377.189H252.09V383.189ZM271.782 383.189H261.936V377.189H271.782V383.189ZM291.475 383.189H281.629V377.189H291.475V383.189ZM308.801 383.189H301.321V377.189H310.936L310.966 377.153L311.009 377.189H311.167V377.324L340.374 402.189H606.167V408.189H339.27H338.166L337.325 407.473L308.801 383.189ZM971.062 272.468V253.189H977.167C997.049 253.189 1013.17 237.071 1013.17 217.189V166.189C1013.17 146.307 997.049 130.189 977.167 130.189H958.167C938.285 130.189 922.167 146.307 922.167 166.189V217.189C922.167 237.071 938.285 253.189 958.167 253.189H965.062V271.082L811.063 402.189H783.667V408.189H812.167H813.271L814.112 407.473L970.007 274.753L971.062 273.854V272.468ZM958.167 136.189C941.599 136.189 928.167 149.621 928.167 166.189V217.189C928.167 233.758 941.599 247.189 958.167 247.189H977.167C993.736 247.189 1007.17 233.758 1007.17 217.189V166.189C1007.17 149.621 993.736 136.189 977.167 136.189H958.167ZM849.167 258.189H890.167V263.189H849.167V258.189ZM847.167 256.189H849.167H890.167H892.167V258.189V263.189V265.189H890.167H849.167H847.167V263.189V258.189V256.189ZM890.167 286.189H849.167V291.189H890.167V286.189ZM849.167 284.189H847.167V286.189V291.189V293.189H849.167H890.167H892.167V291.189V286.189V284.189H890.167H849.167ZM849.167 272.189H890.167V277.189H849.167V272.189ZM847.167 270.189H849.167H890.167H892.167V272.189V277.189V279.189H890.167H849.167H847.167V277.189V272.189V270.189ZM890.167 300.189H849.167V305.189H890.167V300.189ZM849.167 298.189H847.167V300.189V305.189V307.189H849.167H890.167H892.167V305.189V300.189V298.189H890.167H849.167ZM67.7004 16.8447L66.8561 15.2261L65.9467 16.8091L36.5289 68.0173L35.9854 68.9634L36.9752 69.4226L66.6844 83.2042L67.1365 83.4139L67.5761 83.1792L93.8664 69.1465L94.7402 68.6801L94.2821 67.8018L67.7004 16.8447ZM65.9886 56.3028L39.6762 66.5539L65.8305 21.0264L65.9886 56.3028ZM67.9888 56.3237L67.8323 21.4217L91.2143 66.2452L67.9888 56.3237ZM67.9985 58.5027L91.0843 68.3645L68.0978 80.6337L67.9985 58.5027ZM65.9982 58.4454L66.0982 80.7275L39.9451 68.5956L65.9982 58.4454ZM37.8673 72.2168L36.6013 73.6884L66.437 115.713L67.3096 116.942L68.1028 115.66L94.2664 73.3847L92.9142 71.9935L67.0981 86.9731L37.8673 72.2168ZM40.5677 75.8204L66.134 88.7268L66.2383 111.978L40.5677 75.8204ZM68.1339 88.6844L68.2368 111.643L90.4647 75.7271L68.1339 88.6844Z" fill="url(#paint0_linear_99_1731)"/>
<defs>
<linearGradient id="paint0_linear_99_1731" x1="18.6113" y1="8.00348" x2="775.535" y2="650.933" gradientUnits="userSpaceOnUse">
<stop stop-color="#FF06C8"/>
<stop offset="1" stop-color="#5DDEFF"/>
</linearGradient>
</defs>
</svg>
