<svg width="16" height="15" viewBox="0 0 16 15" fill="none" xmlns="http://www.w3.org/2000/svg">
<path d="M7.96921 14.3484C11.7554 14.3484 14.8246 11.2791 14.8246 7.49298C14.8246 3.70683 11.7554 0.637543 7.96921 0.637543C4.18305 0.637543 1.11377 3.70683 1.11377 7.49298C1.11377 11.2791 4.18305 14.3484 7.96921 14.3484Z" stroke="#5DDEFF" stroke-width="1.11228" stroke-miterlimit="10"/>
<path d="M7.96935 12.6995C10.8449 12.6995 13.176 10.3684 13.176 7.49287C13.176 4.61732 10.8449 2.28622 7.96935 2.28622C5.09379 2.28622 2.7627 4.61732 2.7627 7.49287C2.7627 10.3684 5.09379 12.6995 7.96935 12.6995Z" stroke="#5DDEFF" stroke-width="1.11228" stroke-miterlimit="10"/>
<path d="M7.96924 11.0394C9.92786 11.0394 11.5156 9.45166 11.5156 7.49305C11.5156 5.53443 9.92786 3.94666 7.96924 3.94666C6.01063 3.94666 4.42285 5.53443 4.42285 7.49305C4.42285 9.45166 6.01063 11.0394 7.96924 11.0394Z" stroke="#5DDEFF" stroke-width="1.11228" stroke-miterlimit="10"/>
</svg>
