<svg xmlns="http://www.w3.org/2000/svg" width="19.579" height="22.376" viewBox="0 0 19.579 22.376">
  <path id="icon-discord" d="M12.989,10.629a1.145,1.145,0,1,1-1.141-1.242A1.192,1.192,0,0,1,12.989,10.629ZM7.764,9.387a1.246,1.246,0,0,0,0,2.484,1.192,1.192,0,0,0,1.141-1.242A1.185,1.185,0,0,0,7.764,9.387ZM19.579,2.3V22.376c-2.819-2.491-1.917-1.666-5.191-4.71l.593,2.07H2.294A2.3,2.3,0,0,1,0,17.431V2.3A2.3,2.3,0,0,1,2.294,0H17.285A2.3,2.3,0,0,1,19.579,2.3ZM16.39,12.911a14.982,14.982,0,0,0-1.611-6.523,5.532,5.532,0,0,0-3.144-1.175l-.157.179a7.446,7.446,0,0,1,2.786,1.421,9.506,9.506,0,0,0-8.357-.324c-.414.19-.66.324-.66.324A7.548,7.548,0,0,1,8.19,5.348l-.112-.134A5.532,5.532,0,0,0,4.934,6.388a14.982,14.982,0,0,0-1.611,6.523,4.056,4.056,0,0,0,3.412,1.7s.414-.5.75-.929a3.48,3.48,0,0,1-1.958-1.32c.165.115.436.265.459.28a8.155,8.155,0,0,0,6.981.392,6.4,6.4,0,0,0,1.287-.66,3.53,3.53,0,0,1-2.025,1.331c.336.425.738.906.738.906A4.09,4.09,0,0,0,16.39,12.911Z" fill="#fff"/>
</svg>
