<svg xmlns="http://www.w3.org/2000/svg" width="20.448" height="20.442" viewBox="0 0 20.448 20.442">
  <path id="icon-instagram" d="M10.221,7.218a5.241,5.241,0,1,0,5.241,5.241A5.233,5.233,0,0,0,10.221,7.218Zm0,8.649a3.408,3.408,0,1,1,3.408-3.408,3.414,3.414,0,0,1-3.408,3.408ZM16.9,7a1.223,1.223,0,1,1-1.223-1.223A1.22,1.22,0,0,1,16.9,7Zm3.471,1.241a6.05,6.05,0,0,0-1.651-4.283A6.09,6.09,0,0,0,14.436,2.31c-1.688-.1-6.747-.1-8.435,0A6.081,6.081,0,0,0,1.718,3.956,6.07,6.07,0,0,0,.067,8.24c-.1,1.688-.1,6.747,0,8.435a6.05,6.05,0,0,0,1.651,4.283A6.1,6.1,0,0,0,6,22.609c1.116.063,3.7.085,6.2.06.7-.006,1.66-.028,2.232-.06a6.05,6.05,0,0,0,4.283-1.651,6.09,6.09,0,0,0,1.651-4.283C20.467,14.987,20.467,9.932,20.371,8.244ZM18.19,18.485a3.45,3.45,0,0,1-1.943,1.943c-1.346.534-4.539.411-6.026.411s-4.685.119-6.026-.411a3.45,3.45,0,0,1-1.943-1.943c-.534-1.346-.411-4.539-.411-6.026s-.119-4.685.411-6.026A3.45,3.45,0,0,1,4.195,4.49c1.346-.534,4.539-.411,6.026-.411s4.685-.119,6.026.411A3.45,3.45,0,0,1,18.19,6.433c.534,1.346.411,4.539.411,6.026S18.724,17.144,18.19,18.485Z" transform="translate(0.005 -2.238)" fill="#fff"/>
</svg>
