<svg xmlns="http://www.w3.org/2000/svg" width="25.169" height="20.442" viewBox="0 0 25.169 20.442">
  <path id="icon-twitter" d="M22.582,8.475c.016.224.016.447.016.671A14.576,14.576,0,0,1,7.921,23.822,14.577,14.577,0,0,1,0,21.507a10.671,10.671,0,0,0,1.246.064,10.331,10.331,0,0,0,6.4-2.2,5.167,5.167,0,0,1-4.823-3.577,6.505,6.505,0,0,0,.974.08,5.456,5.456,0,0,0,1.357-.176,5.159,5.159,0,0,1-4.136-5.063v-.064a5.2,5.2,0,0,0,2.332.655,5.166,5.166,0,0,1-1.6-6.9,14.662,14.662,0,0,0,10.636,5.4,5.823,5.823,0,0,1-.128-1.182A5.163,5.163,0,0,1,21.192,5.01a10.156,10.156,0,0,0,3.274-1.246A5.144,5.144,0,0,1,22.2,6.607a10.341,10.341,0,0,0,2.97-.8A11.088,11.088,0,0,1,22.582,8.475Z" transform="translate(0 -3.381)" fill="#fff"/>
</svg>
